<?xml version="1.0" encoding="UTF-8"?>
<svg width="1024mm" height="1024mm" version="1.1" viewBox="0 0 1024 1024" xml:space="preserve" xmlns="http://www.w3.org/2000/svg"><g transform="translate(227 -179)"><g transform="matrix(6.76 0 0 6.76 -1194 -257)" display="none"><g><path d="m117 147-0.352 0.194c-0.194 0.107-0.692 0.411-1.11 0.676l-0.753 0.483v8.43l-0.546 0.752-0.546 0.751 0.158 2.39 0.158 2.39-0.365 0.411c-0.575 0.648-1.54 1.68-2.44 2.62-0.904 0.945-1.75 1.8-2.09 2.11l-0.46 0.418-0.0863-0.0868-0.0868-0.0863 0.0651-0.927c0.0667-0.948 0.267-3.1 0.484-5.28s0.451-4.4 0.584-5.46l0.155-1.24 0.0661-0.0444c0.231-0.156 0.774-0.459 1.64-0.914l0.988-0.522 0.405-0.874c0.237-0.512 0.422-0.932 0.542-1.23 0.12-0.298 0.175-0.473 0.153-0.495-0.0284-0.0284-1.01 0.245-2.23 0.606s-2.66 0.81-3.62 1.13l-0.819 0.275 0.0155 0.502c0.0147 0.473 0.303 3.6 0.352 3.83l0.0233 0.106-0.716 0.634c-0.394 0.349-0.813 0.699-0.93 0.779l-0.213 0.145h-0.153c-0.0708 0-0.181-0.0411-0.314-0.111-0.133-0.07-0.289-0.169-0.452-0.285-0.162-0.116-0.331-0.25-0.489-0.388s-0.306-0.282-0.426-0.419l-0.204-0.232-0.122-0.589 0.0351-0.401c0.0193-0.221 0.0826-0.805 0.141-1.3 0.058-0.494 0.124-1.17 0.148-1.51l0.0429-0.608-0.046-0.0889-0.0455-0.0889-1.12-0.37c-1.07-0.353-2.42-0.77-3.5-1.1s-1.92-0.558-1.97-0.54l-0.0491 0.0176 0.254 0.607c0.14 0.334 0.395 0.916 0.568 1.29l0.314 0.687 1.03 0.536c0.569 0.295 1.16 0.62 1.32 0.722l0.29 0.186 0.0568 0.335c0.0689 0.406 0.183 1.32 0.316 2.48 0.133 1.16 0.284 2.56 0.426 3.95 0.142 1.39 0.276 2.75 0.374 3.84 0.0981 1.09 0.161 1.9 0.161 2.16v0.285l-0.182 0.102-0.0848-0.0455c-0.106-0.0566-2.73-2.8-4.18-4.36l-1.08-1.17 0.311-4.8-1.13-1.58v-8.37l-0.779-0.497c-0.429-0.273-0.913-0.573-1.08-0.665l-0.298-0.168-0.032 0.0842c-0.0178 0.0462-0.0321 1.32-0.032 2.84v2.76l0.0553 1.8c0.0303 0.988 0.075 2.04 0.0997 2.33l0.045 0.534 0.0801 0.154c0.0438 0.0847 0.232 0.367 0.42 0.628 0.148 0.207 0.258 0.35 0.336 0.478 0.0788 0.128 0.128 0.239 0.155 0.383 0.027 0.143 0.0327 0.319 0.0258 0.573-0.0069 0.254-0.0262 0.587-0.0491 1.05-0.0362 0.726-0.0821 1.83-0.102 2.45l-0.0357 1.13 6.83 6.27 0.864 0.425c1.02 0.502 2.33 1.12 2.74 1.29 0.16 0.0672 0.296 0.123 0.302 0.124 0.0453 9e-3 1.43-0.617 2.57-1.16l1.37-0.654 3.36-3.08c1.85-1.7 3.39-3.11 3.43-3.14l0.0641-0.061-0.0863-2.69-0.0858-2.69 0.555-0.776 0.555-0.775 0.0346-1.23c0.0191-0.678 0.0506-2.9 0.0698-4.93l0.0351-3.7-0.0377-0.202z"/><path d="m105 115-2.43 2.47c-1.34 1.36-2.44 2.49-2.45 2.53-0.0127 0.0514 3.8 16.2 3.87 16.4l0.0248 0.0662h1.01c0.553 0 1.01-0.0115 1.01-0.0258 0-0.0363 3.85-16.3 3.88-16.3l0.0217-0.062-1.41-1.44c-0.773-0.794-1.88-1.93-2.46-2.51z"/><path d="m105 138-0.245 0.167c-2.3 1.57-4.77 3.29-6.76 4.7-0.996 0.706-1.87 1.33-2.55 1.83-0.674 0.494-1.15 0.853-1.33 1.02l-0.046 0.0408 0.39 0.25c0.257 0.165 0.506 0.313 0.736 0.439 0.23 0.126 0.442 0.229 0.624 0.304 0.163 0.0671 0.326 0.122 0.362 0.123 0.0467 9e-4 0.667-0.402 1.54-0.99s1.99-1.36 3.04-2.11c2.1-1.48 3.82-2.67 4.13-2.86l0.225-0.132 0.276 0.167c0.396 0.24 1.98 1.34 4.24 2.93 1.07 0.758 2.49 1.74 3.15 2.19l1.2 0.808h0.248l0.446-0.228c0.26-0.132 0.574-0.315 0.841-0.483 0.266-0.168 0.484-0.32 0.549-0.392l0.0904-0.0997-0.782-0.578c-1.28-0.944-3.35-2.4-5.28-3.73-0.967-0.666-1.9-1.3-2.68-1.82s-1.42-0.937-1.79-1.16z"/><path d="m102 134-0.336 0.064-3.01 2.19c-0.895 0.652-1.53 1.09-1.99 1.44-0.233 0.174-0.424 0.325-0.585 0.468-0.161 0.142-0.293 0.276-0.406 0.415-0.113 0.139-0.208 0.284-0.296 0.45-0.0885 0.165-0.171 0.35-0.258 0.571-0.175 0.44-0.372 1.02-0.684 1.85l-1.04 2.77 0.0258 0.207 0.0253 0.207 0.0982 0.131c0.0539 0.0722 0.18 0.176 0.281 0.229l0.182 0.0977h0.325l0.235-0.149c0.129-0.0822 2.24-1.65 4.69-3.49l4.45-3.34 0.0755-0.181c0.0292-0.07 0.0514-0.123 0.0574-0.19 6e-3 -0.0667-4e-3 -0.147-0.0377-0.27-0.0675-0.247-0.231-0.668-0.556-1.5l-0.612-1.57-0.136-0.144-0.136-0.144-0.179-0.0594z"/><path d="m108 134 0.168 0.0326 0.168 0.0326 3.03 2.21c1.66 1.21 3.06 2.25 3.1 2.31 0.0472 0.0679 0.571 1.44 1.09 2.83 0.516 1.38 1.02 2.78 1.04 2.88l0.0274 0.165-0.092 0.193-0.0915 0.193-0.313 0.223-0.44 0.0404-0.146-0.0822c-0.0805-0.0453-2.18-1.6-4.66-3.46l-4.52-3.38-0.0801-0.122c-0.0442-0.0675-0.0935-0.204-0.11-0.303l-0.0295-0.18 1.23-3.16 0.137-0.144 0.137-0.144 0.18-0.0594z"/></g><path d="m99.7 134-0.185-0.124-4.15-8.19 0.0425-0.447 0.0817-0.125c0.0892-0.136 3-2.43 3.27-2.58l0.168-0.0924h0.32l0.368 0.197 0.183 0.311 2.22 9.41-2e-4 0.206-2e-4 0.206-0.194 0.317-1.42 0.995-0.528 0.0444zm9.96-0.125c-0.202-0.138-0.551-0.382-0.775-0.541l-0.407-0.29-0.0817-0.172c-0.127-0.268-0.144-0.18 1.03-5.19l1.11-4.74 0.0923-0.132c0.0507-0.0726 0.171-0.186 0.267-0.251l0.175-0.119h0.392l0.193 0.131c0.34 0.231 3.01 2.34 3.14 2.48l0.126 0.135 0.0494 0.514-4.09 8.07-0.3 0.308-0.565 0.0468z" fill="#323232"/></g><rect x="-227" y="179" width="1024" height="1024" fill="#4d4d4d" style="paint-order:stroke markers fill"/><g transform="matrix(6.76 0 0 6.76 1107 -1520)"><path transform="translate(-227 180)" d="m88.2 114 0.187 62.8 17 10.9 18-11.2 0.0253-16.9 27 0.0935-5.71-16.5 5.71-15.1h-26l-0.842-0.935-0.153 26.4 0.0589-39.1zm-0.58 12.9-0.842 0.936h-26l5.71 15.1-5.71 16.5 27-0.0935z" fill="#999" style="paint-order:stroke markers fill"/><path d="m-140 294v13.3h-13.5c-7.83 0-13.5 0.02-13.5 0.047 0 0.0257 1.37 3.78 3.05 8.34l3.05 8.3-3.02 8.2c-1.66 4.51-3.04 8.26-3.06 8.32l-0.0372 0.119 27.1 0.0263 0.0528 17.4 9.35 6.01h5.1e-4c5.14 3.3 9.37 6 9.4 5.99s4.25-2.71 9.39-6.01l9.33-5.99 6e-3 -16.9h13.6c7.47 0 13.6-0.0142 13.6-0.0315s-1.36-3.72-3.02-8.23c-1.66-4.51-3.03-8.26-3.04-8.33-0.0068-0.0421 0.263-0.824 0.778-2.25 0.514-1.43 1.27-3.51 2.24-6.14 1.67-4.54 3.04-8.28 3.04-8.31 0-0.0284-5.51-0.0481-13.6-0.0481h-13.6v-13.8h-18.8zm1.99 2.03h33.5v60.9l-3.12 2c-1.71 1.1-3.15 1.99-3.2 1.98s-2.41-1.52-5.27-3.36l-5.19-3.34-5.19 3.34h-5.2e-4c-2.86 1.83-5.23 3.35-5.27 3.36-0.0437 0.0119-1.48-0.88-3.2-1.98l-3.12-2 5e-3 -30.4zm-14.2 13.1v5.2e-4h12.2c0.01 6e-3 -0.0284 1.97-0.0284 1.97l-11.7 0.0134-11.8-0.0531-0.913-1.9s12.2-0.0412 12.2-0.0274zm49.7 0.581 12.2-3e-5 12.2 3e-5 -0.0372 0.119c-0.0204 0.0654-0.179 0.505-0.353 0.977l-0.317 0.858-11.9-8e-5 -11.9 8e-5v-0.977zm5.2e-4 3.91h11.5c6.33 0 11.5 6e-3 11.5 0.0134-3.9e-4 7e-3 -0.9 2.45-2 5.44l-2 5.42 1.85 5.04c1.02 2.77 1.92 5.21 2 5.42l0.142 0.383h-23v-10.9zm-48.8 0.0129 11.3 0.0134 0.0134 10.8 0.0129 10.8h-11.6c-4.63 0-7.52-4e-3 -9.26-0.0134-1.74-0.01-2.32-0.0264-2.31-0.0527 0.0139-0.0363 0.96-2.61 2.1-5.71l2.08-5.64-1.89-5.12c-0.594-1.61-1.06-2.9-1.37-3.78-0.313-0.882-0.473-1.36-0.454-1.37 0.0328-0.012 5.15-0.0159 11.4-9e-3zm48.8 23.6 23.8-2e-5 0.23 0.62 0.322 0.885 0.156 0.45-24.5 2e-3zm-61.4 0h23.9l-0.0145 0.794-0.015 0.673-12.2 0.0134c-6.7 7e-3 -12.2-0.0237-12.2-0.0269zm43.2 20.3 0.14 0.032c0.0773 0.0174 0.269 0.0633 0.426 0.102l0.285 0.0713 0.0878 0.137 5.2e-4 0.382 1e-3 0.382 0.278 0.182 0.379-0.195c0.119-0.0615 0.206-0.108 0.275-0.137 0.0687-0.0296 0.119-0.0416 0.166-0.0346 0.0468 7e-3 0.0901 0.034 0.144 0.0822 0.0536 0.0482 0.117 0.118 0.207 0.211l0.303 0.317-0.171 0.303c-0.0936 0.167-0.19 0.326-0.215 0.354-0.0378 0.0426-0.0507 0.101-0.0398 0.163s0.0455 0.127 0.101 0.182l0.105 0.106 0.304 5.2e-4c0.167 4e-4 0.357 0.0151 0.422 0.0326l0.118 0.0315 0.0532 0.197c0.0292 0.109 0.0678 0.305 0.0858 0.436l0.0326 0.238-0.402 0.222-0.403 0.222v0.343l0.687 0.519-3e-3 0.107c-2e-3 0.0589-0.0579 0.249-0.125 0.424l-0.122 0.317-0.914-0.0362-0.103 0.124c-0.034 0.0407-0.0598 0.0752-0.076 0.112-0.0162 0.0364-0.0232 0.0743-0.0212 0.121 4e-3 0.0933 0.0462 0.222 0.128 0.443l0.138 0.373-0.062 0.0744c-0.0339 0.0409-0.19 0.163-0.348 0.271l-0.286 0.197-0.303-0.233c-0.167-0.128-0.332-0.25-0.368-0.272l-0.0656-0.0403-0.415 0.166-0.0899 0.419-0.0904 0.419-0.0574 0.0356-5.2e-4 -5.1e-4c-0.0314 0.0196-0.228 0.0465-0.438 0.0599l-0.381 0.0243-0.142-0.427-0.143-0.428-0.194-0.0537c-0.141-0.0395-0.211-0.0598-0.284-0.0305s-0.15 0.108-0.306 0.266l-0.287 0.29h-0.0739c-0.0405 0-0.213-0.0742-0.384-0.165l-0.311-0.166-1e-3 -0.0853c-3e-4 -0.0468 0.0399-0.258 0.0894-0.47l0.0904-0.385-0.334-0.333-0.438 0.0837c-0.13 0.025-0.224 0.0453-0.295 0.0553-0.0707 0.0102-0.118 0.01-0.157-7e-3 -0.0382-0.0171-0.0669-0.0509-0.0997-0.107-0.0328-0.0561-0.0696-0.135-0.124-0.242l-0.177-0.348 0.331-0.334 0.331-0.333-0.0444-0.226-0.045-0.226-0.83-0.316 0.0248-0.392 0.0253-0.392 0.0512-0.0512c0.0279-0.0279 0.226-0.0842 0.441-0.125l0.391-0.0744 0.0708-0.0966c0.0388-0.0531 0.084-0.149 0.1-0.214l0.0295-0.118-0.243-0.328c-0.0742-0.0999-0.129-0.173-0.166-0.233-0.037-0.0594-0.056-0.105-0.0558-0.15 1e-4 -0.045 0.0193-0.0891 0.0568-0.146 0.0375-0.0566 0.0935-0.125 0.168-0.22l0.245-0.309 0.111 0.0253c0.061 0.0139 0.26 0.0814 0.441 0.15l0.33 0.125 0.29-0.164v-0.943l0.317-0.117c0.174-0.0641 0.371-0.117 0.436-0.119l0.119-3e-3 0.494 0.687h0.348l0.217-0.396zm-0.437 1.68-0.374 0.062-0.374 0.0615-0.273 0.129c-0.15 0.0709-0.376 0.218-0.503 0.327l-0.232 0.198-0.393 0.608-0.0925 0.342-0.0925 0.342 0.0243 0.417 0.0238 0.417 0.319 0.679 0.24 0.264 0.24 0.264 0.566 0.34 0.29 0.078c0.16 0.0428 0.41 0.0796 0.557 0.0816l0.267 3e-3 0.315-0.0822c0.193-0.0503 0.37-0.122 0.541-0.22 0.171-0.0976 0.334-0.221 0.5-0.377l0.253-0.237 0.394-0.796v-1.17l-0.171-0.36-0.17-0.359-0.305-0.304-0.305-0.304-0.291-0.137c-0.16-0.0752-0.44-0.166-0.623-0.202z"/><path transform="matrix(.148 0 0 .148 -164 225)" d="m250 1115c-7.52-2.09-12.2-9.16-12.2-18.6-0.0135-8.47 3.18-56.4 3.94-59.1 5.67-20.3 31.9-17.8 34.1 3.21 0.317 3.07-2.85 56.4-3.56 60-2.19 11.1-11.8 17.3-22.3 14.4zm7.38-12.5c1.15-0.806 2.17-3.02 2.4-5.22 0.633-6 3.32-56 3.07-57.1-1.13-4.87-6.28-5.57-8.2-1.12-1.03 2.4-4.4 57.9-3.66 60.4 0.933 3.11 4.09 4.59 6.39 2.99zm62 10.5c-0.0999-0.468-1.82-17.6-3.82-38-2.12-21.6-4-37.6-4-37.6s-2.47 0.083-6.14 0.458c-3.27 0.333-6 0.553-6.06 0.489-0.213-0.231-1.35-12.8-1.18-13 0.0999-0.1 8.62-1.03 18.9-2.06l18.7-1.88 0.399 3.94c0.22 2.17 0.502 5.15 0.627 6.64l0.227 2.7-6.01 0.622c-3.31 0.342-6.1 0.706-6.2 0.809-0.169 0.169 6.91 72.7 7.35 75.3 0.185 1.1 0.185 1.1-4.4 1.53-2.52 0.24-5.41 0.529-6.44 0.644-1.74 0.196-1.87 0.157-2.04-0.641zm-140-9.12c-12.4-2.69-16.9-3.87-16.8-4.38 0.0878-0.306 4.59-19.9 10-43.6 5.42-23.7 9.92-43.2 9.99-43.4 0.3-0.898 15.7 3.11 20.1 5.24 14.3 6.89 14.1 31-0.337 40.3-2.81 1.81-2.68 1.51-1.36 3.17 8.37 10.5 2.44 35.5-9.75 41.3-3.06 1.43-8.66 2.1-11.8 1.42zm6.12-14.1c5.04-3.37 8.26-18.2 5.07-23.4-1.35-2.19-6.07-4.16-6.49-2.71-0.506 1.77-5.95 25.8-5.95 26.3 0 1.49 5.04 1.35 7.37-0.202zm7.09-38.1c5.77-1.45 9.89-14.3 6.47-20.1-1.42-2.43-6.36-4.96-6.79-3.48-0.419 1.44-5.21 22.7-5.21 23.1 0 0.43 0.881 0.659 3.14 0.816 0.453 0.031 1.53-0.12 2.39-0.337zm189 52.1c-0.346-1.06-20.9-86.5-20.9-86.9 1e-3 -0.343 12.1-3.53 12.3-3.25 0.147 0.157 21.2 87.5 21.1 87.6-0.0471 0.038-2.58 0.664-5.62 1.39-3.04 0.726-5.82 1.4-6.16 1.5-0.345 0.099-0.696-0.034-0.781-0.292zm57.3-19.3c-3.89-1.37-7.16-4.16-9.99-8.54-1.48-2.3-21.4-51.9-22.5-56-5.54-20.8 19.8-32.1 31.3-14 1.49 2.33 6.63 14.8 6.26 15.2-0.322 0.32-10.1 4.23-10.6 4.22-0.203 0-1.55-2.97-2.98-6.59-3.35-8.44-4.91-10.1-8.52-9.15-2.71 0.729-3.54 2.63-3.12 5.53 0.568 3.92 3.99 12.1 10.1 27.3 11.9 29.6 12 30 15.5 30 5.3 0 5.91-3.85 2.13-13.4-1.4-3.52-2.48-6.5-2.41-6.63 0.187-0.303 10.9-4.44 11-4.25 0.478 0.703 5 12.8 5.45 14.6 3.45 13.6-9.04 26.1-21.6 21.7zm-328-1.34c-11.7-2.1-17.4-11.2-14.4-22.9 0.824-3.25 21.8-53.3 23.4-55.8 11.4-18 36.5-7.45 31.6 13.3-0.648 2.75-21.5 53-23.1 55.7-4.07 6.81-11.2 10.8-17.4 9.7zm3.32-13c0.635-0.266 1.59-1.05 2.12-1.74 1.05-1.38 22.2-51.9 22.8-54.3 1.44-6.43-5.54-8.63-8.57-2.69-3.7 7.26-21.9 52.5-21.9 54.5-0.0311 3.58 2.57 5.56 5.62 4.28zm-63.8-17.2c-2.94-1.85-5.31-3.56-5.25-3.81 0.0539-0.245 3.24-8.28 7.08-17.9 3.84-9.58 6.92-17.6 6.86-17.8-0.0662-0.198-0.793-0.762-1.62-1.25l-1.5-0.892-1.19 1.88c-0.657 1.04-5.2 8.27-10.1 16.1-6.58 10.5-9.05 14.1-9.44 14-1.12-0.43-10.3-6.42-10.3-6.67 0.259-0.774 47.6-75.9 47.8-75.9 0.429-0.0216 11.6 7.04 13.9 8.78 10.4 7.92 11 19 1.68 32.8-4.59 6.85-11.2 12.3-14.9 12.3-1.5 0.013-1.46-0.081-9.63 21.1-4.37 11.3-7.96 20.6-7.99 20.6-0.027 0.034-2.46-1.45-5.4-3.3zm20.7-50.6c6.64-3.09 12.5-15 9.84-20.1-0.641-1.26-3.36-4.02-3.96-4.02-0.183 0-13 20.2-14.2 22.4-0.415 0.753-0.357 0.868 0.712 1.42 2.77 1.43 5.07 1.54 7.62 0.358zm432 51.4c-3.2-0.833-5.58-2.34-8.78-5.54-2.58-2.59-7.79-9.52-7.41-9.84 0.696-0.58 9.97-7.34 10.1-7.34 0.0729 0 0.969 1.27 1.99 2.83 5.81 8.85 13.8 10.3 13.7 2.46-0.0729-7.29-4.78-11.5-21.4-19.2-18.3-8.47-23.8-12.8-27.9-21.5-5.31-11.5-1.35-21.7 10.1-25.8 7.7-2.79 17.3 1.91 22.4 11.2 0.351 0.643 1.14 1.99 1.14 1.99s-2.15 1.66-5.11 3.82c-1.26 0.922-5.24 3.71-5.24 3.71s-0.962-1.84-1.37-2.45c-6.6-9.94-15.4-8.27-10.5 2 2.5 5.27 5.29 7.29 18.7 13.5 24 11.1 31.9 19.3 32 33 0.0607 10.1-12.5 19.8-22.4 17.2zm-570-514c-15.5-7.33-28.3-13.3-28.5-13.3-0.151-0.0149-1.28 2.06-2.5 4.62l-2.22 4.64-4.82-2.29c-2.65-1.26-4.79-2.43-4.76-2.6 0.0877-0.431 12.9-27.7 13.1-27.9 0.136-0.136 9.32 3.99 9.74 4.38 0.0513 0.0472-0.88 2.14-2.07 4.66-1.19 2.52-2.03 4.69-1.88 4.84 0.156 0.147 13.1 6.25 28.7 13.6s28.4 13.3 28.5 13.4c0.25 0.182-4.38 9.46-4.71 9.43-0.208-0.0203-13.1-6.03-28.6-13.4zm681-0.566c-3.11-6.1-5.52-11.2-5.35-11.4 0.511-0.461 65.4-33.6 65.7-33.6 0.202 0 1.41 2.05 2.69 4.56l2.32 4.56-28.2 14.4c-15.5 7.95-28.5 14.6-28.7 14.8-0.438 0.317 0 1.41 2.68 6.78l3.21 6.4-4.23 2.23c-2.32 1.23-4.27 2.23-4.33 2.22-0.058 0-2.65-5-5.76-11.1zm-661-48.3c-16.7-11.3-30.4-20.6-30.6-20.8-1.17-1.17 8.55-14.5 13-16.7 9.86-4.96 29.3 6.15 31.2 17.3l0.264 1.55 16.2 6.9c8.93 3.8 16.5 7.03 16.9 7.18 0.714 0.318-4.69 8.9-5.54 8.79-0.241-0.0297-6.85-2.88-14.7-6.34-9.34-4.12-14.4-6.17-14.6-5.95-0.343 0.678-1.02 2.23-1.02 2.23 0.0567 0.0635 4.37 3.54 12.2 8.84 7.06 4.76 12.9 8.77 13 8.91 0.222 0.359-5.24 8.6-5.69 8.58-0.196 0-14-9.22-30.6-20.5zm3.29-12.8c4.03-8.32-12.4-19.5-18.5-12.6-1.45 1.65-2.31 0.83 8.42 8.09 10.2 6.91 9.11 6.42 10.1 4.48zm635 18.7c-10.4-3.59-12.8-15.8-4.75-24 2.92-2.94 38-28.1 41.5-29.8 15.4-7.4 28.2 10.9 16 23-2.48 2.45-37.3 27.6-40.7 29.3-4.15 2.18-8.48 2.71-12.1 1.47zm7.32-10.8c2.17-1.27 36.6-26.1 38-27.4 4.08-3.86 0.921-8.74-4.03-6.22-1.19 0.609-35.7 25.3-38 27.1-4.91 4.04-1.41 9.65 4.04 6.47zm-583-26.6c-2.96-0.83-5.91-2.57-8.72-5.14-11.9-10.9-32.7-30.9-34-32.6-10.1-13.7 5.46-29.6 19.6-20 5.08 3.43 36.8 34 38.5 37.1 5.86 10.8-3.9 23.8-15.4 20.6zm5.64-11.1c1.18-1.26 1.16-3.58-0.646-5.92-1.15-1.49-6.63-6.63-16.3-15.7-10.1-9.42-15.1-14.2-17.6-16.1-2.5-1.89-4.59-0.917-5.32-0.305-0.906 0.766-1.19 2.77-0.343 4.2 1.33 2.24 7.63 8.26 17.7 17.8 9.79 9.19 14.5 13.3 16.8 15.3 2.89 2.44 5.24 1.3 5.69 0.814zm532 3.18c-8.5-2.97-11.9-11.7-7.96-20.1 1.52-3.23 33.4-35.7 37.9-38.5 14.6-9.32 29.3 6.28 19.2 20.4-2.34 3.26-33.5 34.1-36.3 35.9-4.27 2.76-9.15 3.64-12.9 2.32zm7.1-11c3.48-2.42 33.1-32.8 34.5-35.2 0.465-0.814 0.517-2.61-0.583-3.76-0.816-0.85-2.25-1.19-3.74-0.795-2.33 0.621-35.5 33.8-36.2 36.2-1.12 3.89 2.5 6 6.05 3.52zm-504-33.2-9.46-12.3-17.6-13.6c-14.4-11.2-17.5-13.7-17.1-14.1 2.2-2.05 7.59-5.86 7.93-5.59 0.221 0.172 4.56 3.71 9.64 7.86 5.08 4.15 9.45 7.55 9.72 7.55 0.636 0 0.806 0.416-4.93-12.1-2.73-5.95-4.92-11-4.86-11.1 0.136-0.368 7.46-6.08 7.8-6.08 0.132 0 4.13 9.12 8.89 20.3l8.65 20.3 9.64 12.4c5.3 6.85 9.51 12.6 9.35 12.7-0.713 0.686-7.76 6.05-7.94 6.05-0.113-8.1e-4 -4.46-5.53-9.67-12.3zm450 4.46c0.0458 0.0283-0.0675 0.28 9.59-13.2 5.09-7.1 9.28-13.2 9.28-13.2l-7.09-4.88c0.0324 0.0204-4.82 6.28-9.68 13.1-4.86 6.77-9.23 12.9-9.23 12.9-0.0135 0-8.53-6.16-8.53-6.16l43.4-60.5 8.67 6.27-17.8 25.1s6.89 5.29 6.99 5.18c0.0607-0.0716 4.09-5.67 8.95-12.4 4.86-6.77 9.01-12.8 9.01-12.8l8.74 6.27-43.6 60.7zm-49.7-30.5c-9.04-2.28-13.6-10.5-10.7-19.1 2.36-6.87 22.1-44.8 24.6-47.3 11.3-11.2 28.2-0.273 23.1 15-0.794 2.4-5.24 11.7-5.6 11.7-0.0999 0-2.1-0.963-4.45-2.14l-4.27-2.14 2.67-5.4c1.87-3.79 2.93-6.74 2.54-8.35-0.365-1.5-1.94-2.79-3.68-2.67-2.3 0.159-2.86 0.146-14.3 23-6.25 12.5-10 20.3-10.5 22.3-0.602 2.64-0.0675 4.03 2.03 4.91 2.88 1.2 4.41-0.199 7.93-7.28l2.54-5.08 8.87 4.42-2.67 5.28c-5.39 10.6-11.2 14.8-18.2 13zm-331-37.1c-6.97-16.7-13.4-32.2-14.3-34.4l-1.65-3.98 4.83-2.03c2.66-1.11 4.87-1.99 4.91-1.94 0.0445 0.0487 2.69 6.35 5.88 14 3.19 7.66 5.9 14 6.02 14.2 0.175 0.193 7.73-2.67 8.2-3.11 0.0675-0.0633-2.54-6.5-5.8-14.3-3.26-7.8-5.86-14.2-5.78-14.3 0.464-0.464 9.36-3.94 9.56-3.74 0.734 0.744 28.8 68.6 28.4 68.6-0.0729 0-2.22 0.867-4.78 1.93l-4.64 1.93-6.18-14.8c-3.4-8.14-6.31-14.9-6.47-15-0.264-0.163-8.15 2.99-8.15 3.26 0 0.0648 2.81 6.83 6.24 15 3.43 8.2 6.2 14.9 6.16 15-0.085 0.077-9.62 4.08-9.68 4.07-0.0203 0-5.74-13.7-12.7-30.4zm277 14.9c-10.5-2.64-14.3-10-11.2-21.7 0.511-1.94 1.01-3.61 1.11-3.71 0.152-0.153 8.41 1.45 9.73 1.89 0.332 0.111 0.317 0.539-0.0661 1.86-2.56 8.8 0.151 14.8 5.17 11.5 4.76-3.18 5.04-10.1 0.981-24.1-4.91-16.8-5.17-22.9-1.31-30.6 9.08-18 32.5-6.39 26.2 12.9l-0.661 2-10.1-2.22 0.515-1.61c2.9-9.06-3.7-14.5-7.08-5.78-1.75 4.49-1.36 8.01 2.2 20.1 4.34 14.7 4.9 20.7 2.51 27.2-3.67 9.93-10 14.3-18 12.2zm-208-5.61c-0.495-1.48-18.8-71.4-18.7-71.5 0.202-0.195 9.99-2.72 10.1-2.61 0.058 0.0633 4.15 15.5 9.09 34.4 4.94 18.8 9.2 35 9.47 35.9l0.478 1.65-4.93 1.3c-5.65 1.49-5.33 1.44-5.52 0.852zm46.3-9.33c-3.67-1.2-7.01-5-8.33-9.46-1.34-4.53-6.59-49.7-6.15-52.9 2.34-16.7 23.1-18.3 27.8-2.09 0.93 3.18 2.3 14 1.81 14.3-0.185 0.115-2.14 0.411-4.34 0.658-2.2 0.248-4.42 0.531-4.92 0.628-0.921 0.178-0.921 0.178-1.54-5.12-1.11-9.54-1.8-11.2-4.67-11.2-2.28 0-3.46 1.49-3.53 3.55-0.13 3.63 0.796 11 2.61 25.8 3.27 26.7 3.26 26.7 6.97 26.7 3.11 0 3.52-2.58 2.49-11.2-0.555-4.66-1.06-8.38-1.06-8.38s-0.733-0.0391-1.98 0.0904c-2.09 0.218-2.09 0.218-2.27-0.935-0.401-2.54-0.949-7.49-0.842-7.6 0.137-0.137 14.7-1.95 14.8-1.84 0.0607 0.0796 4.44 36 4.44 36.4-9.6e-4 0.122-0.845 0.328-1.88 0.459-1.03 0.131-2.38 0.327-3.01 0.438-1.05 0.187-1.19 0.0891-1.92-1.35-0.431-0.854-0.843-1.62-0.916-1.7-0.0729-0.0809-0.897 0.649-1.83 1.62-3.06 3.18-7.84 4.49-11.7 3.21zm73.8-2.63-3.32-0.117 0.2-2.4c0.292-3.5 1.36-30.1 1.21-30.2-0.0688-0.0621-2.09-0.18-4.5-0.263l-4.37-0.15-0.0135 1.63c-0.0229 3.18-1.33 30.8-1.46 30.8-0.221 0.162-10.3-0.319-10.4-0.498-0.0661-0.0904 0.602-16.9 1.49-37.3l1.61-37.1 5.12 0.192c2.82 0.105 5.21 0.279 5.32 0.385 0.107 0.107-0.0958 7.03-0.448 15.4-0.352 8.35-0.57 15.2-0.484 15.3 0.0863 0.0783 2.1 0.218 4.46 0.311l4.31 0.17 0.436-10.7c0.24-5.91 0.536-12.9 0.658-15.5l0.222-4.76 5.21 0.25c2.87 0.138 5.26 0.29 5.31 0.339 0.111 0.0945-2.61 64.6-2.99 70.8l-0.222 3.66-2.02-0.0742c-1.11-0.0404-3.51-0.127-5.34-0.192z" fill="#fff" stroke-width="1.35"/><path transform="matrix(.148 0 0 .148 -164 225)" d="m685 585c0.183 0.0424-13.6 2.62-13.6 2.62l0.808 4.72c1.49 8.7 2.71 18.1 3.63 27.9 0.925 9.81 1.56 20.1 1.88 30.6l0.362 11.9-0.363 11.7c-0.194 6.24-0.52 12.5-0.973 18.7-0.454 6.2-1.04 12.4-1.75 18.5-0.71 6.16-1.55 12.3-2.51 18.4-0.964 6.1-2.05 12.2-3.27 18.2-1.21 6.04-2.55 12-4.02 18-1.46 5.97-3.05 11.9-4.75 17.8-1.71 5.89-3.53 11.7-5.48 17.5-1.95 5.8-4.02 11.6-6.2 17.3s-4.49 11.4-6.91 17c-2.42 5.6-4.96 11.1-7.62 16.6-2.65 5.49-5.42 10.9-8.31 16.3-2.88 5.37-5.88 10.7-8.99 15.9-3.11 5.25-6.33 10.4-9.67 15.5-3.33 5.11-6.78 10.2-10.3 15.1-3.55 4.97-7.22 9.87-11 14.7-3.77 4.82-7.65 9.56-11.6 14.2l-2.65 3.1 0.314 0.308c0.172 0.169 2.56 2.2 5.31 4.51l5 4.2 0.449-0.355c0.812-0.641 4.72-5.37 9.3-11.1 4.58-5.75 9.82-12.5 13.3-17.3 4.25-5.81 8.36-11.7 12.3-17.7 3.95-6 7.76-12.1 11.4-18.3 3.65-6.17 7.15-12.4 10.5-18.8 3.35-6.33 6.54-12.7 9.57-19.2 3.04-6.48 5.92-13 8.64-19.6 2.72-6.61 5.29-13.3 7.7-20 2.41-6.72 4.66-13.5 6.74-20.3 2.09-6.82 4.01-13.7 5.78-20.6 1.76-6.91 3.37-13.9 4.81-20.8 1.44-6.98 2.71-14 3.82-21 1.11-7.04 2.05-14.1 2.83-21.2 0.775-7.08 1.38-14.2 1.82-21.3 0.438-7.11 0.707-14.2 0.805-21.4 0.0974-7.12 0.0251-14.3-0.221-21.4-0.246-7.12-0.665-14.2-1.26-21.4-0.593-7.11-1.36-14.2-2.3-21.3-0.689-5.17-1.5-9.74-2.13-13-0.637-3.28-1.1-5.26-1.1-5.26zm-798 0.375c-0.442 0.436-2.85 16.4-3.98 26.4-0.881 7.8-1.5 14.6-1.94 21.5-0.435 6.96-0.684 14.1-0.823 22.6l-0.22 13.5 0.413 9.67c0.271 6.34 0.667 12.6 1.19 18.9 0.519 6.28 1.16 12.5 1.93 18.7 0.766 6.21 1.65 12.4 2.66 18.5 1.01 6.14 2.14 12.2 3.4 18.3 1.25 6.06 2.63 12.1 4.12 18.1 1.5 5.98 3.11 11.9 4.85 17.8 1.74 5.9 3.59 11.8 5.56 17.6 1.97 5.81 4.07 11.6 6.28 17.3 2.21 5.72 4.54 11.4 6.98 17 2.44 5.62 5.01 11.2 7.69 16.7 2.68 5.52 5.47 11 8.38 16.4 2.91 5.42 5.94 10.8 9.07 16.1 3.14 5.31 6.39 10.6 9.76 15.8 3.37 5.19 6.85 10.3 10.4 15.4 3.59 5.08 7.3 10.1 11.1 15 3.82 4.95 7.75 9.84 11.8 14.7l4.06 4.84 0.981-0.814c6.15-5.1 9.66-8.1 9.66-8.24 0-0.0954-1.49-1.94-3.31-4.1-5.7-6.74-7.54-9.05-13.7-17.2-4.5-5.92-8.84-11.9-13-18-4.17-6.11-8.18-12.3-12-18.6-3.84-6.28-7.51-12.6-11-19.1-3.51-6.43-6.84-12.9-10-19.5-3.17-6.58-6.16-13.2-8.99-19.9-2.83-6.71-5.48-13.5-7.96-20.3-2.48-6.83-4.79-13.7-6.92-20.7-2.13-6.94-4.09-13.9-5.87-21-1.78-7.03-3.39-14.1-4.81-21.2-1.43-7.11-2.68-14.3-3.75-21.4-1.07-7.18-1.96-14.4-2.67-21.6-0.709-7.23-1.24-14.5-1.58-21.8-0.344-7.28-0.506-14.6-0.483-21.9 0.0238-7.31 0.231-14.6 0.625-21.9 0.394-7.32 0.975-14.6 1.74-22 0.768-7.33 1.72-14.7 2.87-22l1.18-7.51-0.376-0.124c-1.05-0.346-13.2-2.27-13.3-2.11z" fill="#b3b3b3" stroke-width="1.31"/><g transform="matrix(.199 0 0 .199 -27.3 41.9)"><path d="m-414 1433c-0.22 0-1.28 0.55-2.74 1.4s-3.34 2-5.18 3.2l-3.09 2.01v42.1l-5.59 7.6 1.6 23.9-1.51 1.73c-3.89 4.44-9.99 10.9-15.2 16.3-2.62 2.69-5.03 5.1-6.84 6.84-1.81 1.74-3.02 2.81-3.24 2.81-0.0996 0-0.185-0.042-0.254-0.149-0.0696-0.107-0.124-0.278-0.161-0.535-0.075-0.515-0.0837-1.38-0.0176-2.76 0.132-2.77 0.564-7.63 1.36-16 1.37-14.3 2.49-25.5 3.34-33.3 0.846-7.72 1.41-12 1.66-12.4 0.116-0.188 1.35-0.956 3.16-1.99 1.8-1.03 4.17-2.32 6.55-3.56l3.67-1.91 1.95-4.29c1.16-2.56 2.13-4.78 2.78-6.38 0.652-1.6 0.992-2.59 0.904-2.68-0.131-0.131-4.5 1.08-10.1 2.75-5.63 1.67-12.5 3.8-17.7 5.51l-6.06 2 0.173 3.34c0.143 2.76 0.766 9.4 1.64 17.5l0.158 1.46-3.58 3.14c-1.61 1.42-2.82 2.48-3.8 3.21-0.49 0.365-0.924 0.647-1.32 0.848-0.4 0.202-0.767 0.322-1.12 0.366-0.356 0.044-0.703 0.01-1.06-0.099-0.359-0.109-0.729-0.292-1.14-0.547-0.813-0.51-1.77-1.31-3.05-2.37-1.26-1.05-2.22-1.86-2.92-2.66-0.35-0.399-0.637-0.794-0.868-1.21-0.231-0.419-0.405-0.861-0.53-1.35-0.249-0.988-0.301-2.18-0.211-3.8 0.0902-1.62 0.322-3.67 0.64-6.37 0.36-3.06 0.733-6.82 0.828-8.37l0.173-2.82-0.766-0.395c-1.09-0.563-9.28-3.18-17.2-5.62-3.98-1.22-7.91-2.39-10.9-3.23-2.95-0.845-4.93-1.36-5.02-1.28-0.111 0.111 0.123 0.901 0.683 2.32 0.56 1.42 1.45 3.47 2.64 6.09l2.25 4.96 5.06 2.61c2.9 1.49 4.83 2.53 6.09 3.27 1.25 0.742 1.83 1.19 2 1.52 0.221 0.413 0.728 3.93 1.37 9.12 0.642 5.19 1.42 12.1 2.18 19.2 0.759 7.12 1.5 14.5 2.07 20.7 0.573 6.21 0.977 11.2 1.06 13.7l0.076 2.21-0.914 0.588-1.22-1.19c-2.87-2.78-9.18-9.42-14.8-15.4-2.8-3.01-5.42-5.87-7.33-8.01-1.92-2.14-3.14-3.57-3.14-3.72 1e-3 -0.259 0.352-5.64 0.779-12l0.777-11.5-0.834-1.22c-0.459-0.669-1.76-2.51-2.9-4.1l-2.06-2.88v-41.9l-3.8-2.43c-2.31-1.48-4.04-2.54-5.23-3.2-1.19-0.659-1.84-0.917-1.96-0.788-0.15 0.149-0.241 2.47-0.284 6.04-0.0428 3.57-0.0368 8.39 0.0103 13.6s0.135 10.7 0.255 15.6c0.12 4.92 0.273 9.26 0.45 12.1 0.0759 1.22 0.135 2.14 0.219 2.89 0.0837 0.748 0.192 1.32 0.368 1.85s0.418 1.01 0.77 1.57 0.813 1.2 1.43 2.05c0.839 1.16 1.81 2.66 2.16 3.33l0.633 1.22-0.279 5.27c-0.154 2.9-0.406 8.71-0.562 12.9l-0.282 7.65 1.01 0.973c0.554 0.535 8.26 7.63 17.1 15.8l16.1 14.8 6.38 3.11c3.51 1.71 7.81 3.76 9.55 4.55h-1e-3c1.07 0.489 1.8 0.874 2.5 1.08 0.349 0.102 0.689 0.159 1.06 0.162 0.37 0 0.77-0.049 1.24-0.164 0.936-0.231 2.14-0.717 3.93-1.53 1.79-0.817 4.15-1.97 7.39-3.52l7.48-3.58 34.1-31.3 0.0822-1.47c0.0449-0.811-0.106-6.92-0.335-13.6l-0.416-12.1 5.5-7.63 0.16-2.72c0.178-3.03 0.314-7.6 0.408-12.8 0.094-5.15 0.146-10.9 0.153-16.2 7e-3 -5.35-0.0288-10.3-0.111-14-0.0818-3.64-0.209-5.94-0.382-5.94z"/><path d="m-503 1309c-0.49-0.058-1.03 0.067-1.8 0.46-0.763 0.393-1.74 1.05-3.11 2.07-1.37 1.02-3.13 2.39-5.44 4.2-2.78 2.17-4.87 3.56-6.25 4.81-0.69 0.625-1.2 1.22-1.53 1.85-0.164 0.319-0.283 0.65-0.356 1-0.0727 0.353-0.0996 0.728-0.0796 1.14 0.04 0.815 0.267 1.76 0.684 2.91 0.417 1.15 1.02 2.52 1.83 4.18 1.6 3.31 3.99 7.8 7.18 14.1 5.12 10.1 7.85 15.5 9.49 18.4 0.818 1.44 1.36 2.26 1.79 2.75 0.432 0.489 0.753 0.645 1.12 0.752 0.394 0.115 0.741 0.18 1.1 0.175 0.355-0.01 0.716-0.081 1.14-0.249 0.848-0.336 1.94-1.04 3.73-2.29 1.78-1.25 2.89-2.08 3.6-2.75 0.353-0.336 0.605-0.633 0.79-0.921 0.184-0.288 0.301-0.567 0.382-0.87l0.266-0.986-5.7-24.1c-2.92-12.4-4.4-18.6-5.33-21.9-0.465-1.64-0.792-2.53-1.09-3.06-0.301-0.536-0.576-0.717-0.936-0.936-0.552-0.336-0.989-0.577-1.48-0.635z" fill="#323232"/><g><path d="m-473 1274-24.7 25 9.64 40.6c5.3 22.3 9.72 40.9 9.82 41.3l0.184 0.734 10.4-0.144 19.5-82.2-5.17-5.35c-2.84-2.94-8.42-8.64-12.4-12.7z"/><path d="m-474 1386-4.74 3.27c-8.85 6.1-16.4 11.3-22.7 15.7s-11.5 8.03-15.5 10.9c-2.01 1.44-3.74 2.7-5.21 3.78-1.47 1.08-2.67 1.99-3.63 2.74-0.953 0.744-1.66 1.32-2.12 1.75-0.232 0.212-0.404 0.385-0.519 0.52-0.114 0.135-0.171 0.233-0.171 0.294 0 0.043 0.0353 0.103 0.102 0.176 0.0667 0.074 0.165 0.161 0.29 0.26 0.25 0.199 0.61 0.445 1.04 0.721 0.435 0.276 0.946 0.582 1.5 0.9s1.15 0.648 1.76 0.973c1.21 0.649 2.47 1.28 3.5 1.74 0.516 0.233 0.977 0.425 1.35 0.559 0.372 0.134 0.655 0.209 0.817 0.209 0.11 0 0.342-0.09 0.692-0.268 0.35-0.177 0.816-0.442 1.39-0.789 1.16-0.695 2.76-1.72 4.77-3.05s4.42-2.97 7.18-4.88c2.77-1.91 5.89-4.09 9.34-6.52 3.93-2.78 7.21-5.08 9.92-6.98 2.71-1.89 4.86-3.38 6.53-4.52 1.67-1.14 2.87-1.93 3.7-2.43 0.41-0.253 0.726-0.435 0.957-0.554s0.38-0.174 0.456-0.174c0.078 0 0.234 0.059 0.478 0.185 0.244 0.126 0.578 0.32 1.01 0.588 0.869 0.537 2.14 1.37 3.91 2.58 1.77 1.2 4.04 2.77 6.9 4.76 2.86 2 6.31 4.42 10.5 7.34 2.58 1.82 5.63 3.94 8.46 5.9 2.83 1.96 5.44 3.75 7.15 4.9 1.79 1.2 3.08 2.09 4.06 2.72 0.491 0.313 0.904 0.562 1.27 0.751 0.361 0.19 0.67 0.32 0.95 0.4 0.14 0.04 0.273 0.067 0.402 0.081 0.129 0.015 0.254 0.017 0.377 0.01 0.248-0.017 0.491-0.079 0.755-0.179 0.263-0.1 0.547-0.238 0.875-0.407 0.328-0.169 0.7-0.369 1.14-0.593 0.702-0.357 1.35-0.696 1.94-1.02s1.13-0.626 1.61-0.914c0.481-0.288 0.909-0.559 1.28-0.814 0.374-0.255 0.694-0.494 0.962-0.718 0.268-0.224 0.484-0.433 0.648-0.628s0.277-0.374 0.339-0.541c0.031-0.083 0.0491-0.163 0.0549-0.239 6e-3 -0.076-1e-3 -0.15-0.0203-0.219-0.0193-0.07-0.0507-0.137-0.0948-0.2-0.044-0.064-0.101-0.124-0.169-0.181-0.721-0.602-2.03-1.59-3.77-2.87-1.74-1.28-3.92-2.84-6.38-4.6-2.47-1.75-5.22-3.69-8.11-5.71-2.89-2.02-5.93-4.13-8.96-6.22s-8.88-6.08-8.92-6.11c0 0-8.02-5.33-7.99-5.39 0 0-11.2-6.98-11.3-7.04z"/><path d="m-458 1365c-0.286 0.013-0.551 0.074-0.799 0.182-0.249 0.108-0.482 0.264-0.705 0.469-0.446 0.408-0.851 1.01-1.26 1.8-0.823 1.59-1.67 3.96-2.91 7.12-1.57 4.02-2.43 6.29-2.79 7.74-0.183 0.726-0.243 1.25-0.21 1.68 0.0326 0.43 0.158 0.771 0.347 1.14 0.174 0.336 11.6 9.05 23.1 17.7 11.5 8.69 23.1 17.3 23.6 17.5 0.633 0.239 1.28 0.302 1.9 0.219 0.615-0.083 1.2-0.311 1.7-0.652s0.927-0.797 1.23-1.33c0.298-0.537 0.47-1.16 0.47-1.83 0-0.309-0.635-2.24-1.6-4.97s-2.26-6.27-3.58-9.8-2.66-7.04-3.72-9.72-1.84-4.54-2.03-4.74c-0.317-0.34-2.24-1.83-4.28-3.32-2.04-1.49-8.56-6.25-14.5-10.6-4-2.92-6.92-5.12-9.13-6.57-1.1-0.726-2.03-1.27-2.82-1.62-0.792-0.352-1.45-0.517-2.02-0.49z"/><path d="m-489 1365c0.286 0.013 0.551 0.074 0.799 0.182 0.249 0.108 0.482 0.264 0.705 0.469 0.446 0.408 0.851 1.01 1.26 1.8 0.823 1.59 1.67 3.96 2.91 7.12 1.57 4.02 2.43 6.29 2.79 7.74 0.183 0.726 0.243 1.25 0.21 1.68-0.0326 0.43-0.158 0.771-0.347 1.14-0.174 0.336-11.6 9.05-23.1 17.7-11.5 8.69-23.1 17.3-23.6 17.5-0.633 0.239-1.28 0.302-1.9 0.219-0.615-0.083-1.2-0.311-1.7-0.652s-0.927-0.797-1.23-1.33c-0.298-0.537-0.47-1.16-0.47-1.83 0-0.309 0.635-2.24 1.6-4.97s2.26-6.27 3.58-9.8 2.66-7.04 3.72-9.72 1.84-4.54 2.03-4.74c0.317-0.34 2.24-1.83 4.28-3.32 2.04-1.49 8.56-6.25 14.5-10.6 4-2.92 6.92-5.12 9.13-6.57 1.1-0.726 2.03-1.27 2.82-1.62 0.792-0.352 1.45-0.517 2.02-0.49z"/></g><path d="m-442 1309c-0.406 3e-4 -0.753-0.018-1.06 0-0.311 0.02-0.586 0.079-0.844 0.235-0.258 0.156-0.5 0.41-0.746 0.82-0.246 0.41-0.498 0.975-0.774 1.75-0.552 1.56-1.2 3.98-2.12 7.71-0.919 3.74-2.1 8.8-3.72 15.7-2.89 12.2-4.35 18.5-5 21.9-0.322 1.68-0.438 2.64-0.421 3.26 0.0164 0.623 0.164 0.911 0.371 1.25 0.271 0.445 2.02 1.84 3.85 3.16 1.83 1.33 3.74 2.59 4.33 2.77 0.4 0.122 0.817 0.163 1.23 0.13 0.414-0.033 0.826-0.14 1.22-0.311 0.39-0.172 0.759-0.409 1.09-0.702s0.616-0.644 0.844-1.04c1.71-3 6.74-12.9 11.3-22.2 2.3-4.66 4.51-9.16 6.14-12.6 1.63-3.42 2.69-5.74 2.72-6.03 0.0528-0.537 0.0763-0.957-0.0475-1.39-0.124-0.429-0.395-0.867-0.931-1.44-0.536-0.572-1.34-1.28-2.52-2.24-1.18-0.966-2.75-2.19-4.81-3.8-4.68-3.65-6.85-5.36-8.03-6.16-0.591-0.399-0.934-0.57-1.22-0.641-0.287-0.071-0.516-0.042-0.879-0.042z" fill="#323232"/></g><path d="m-88.9 315c-0.374 2.2e-4 -0.753 0.0302-1 0.0899-0.259 0.0627-0.499 0.154-0.72 0.272-0.22 0.118-0.421 0.264-0.602 0.436s-0.34 0.371-0.478 0.595c-0.138 0.225-0.255 0.475-0.35 0.751-0.112 0.324-0.19 0.652-0.245 1.06s-0.087 0.882-0.105 1.51l-0.032 1.12h2.59l0.0336-1.07c0.0141-0.452 0.038-0.826 0.0765-1.13 0.0385-0.306 0.0913-0.546 0.163-0.728 0.0358-0.0912 0.0763-0.168 0.122-0.233 0.0456-0.0643 0.0964-0.115 0.153-0.156 0.0566-0.0401 0.119-0.0692 0.188-0.0879 0.0686-0.0187 0.143-0.0274 0.225-0.0274 0.12 0 0.228 0.0299 0.322 0.0904 0.0948 0.0605 0.177 0.152 0.247 0.274 0.07 0.123 0.128 0.277 0.174 0.464 0.0463 0.187 0.0809 0.406 0.104 0.658 0.0288 0.309 0.0317 0.642 0.0088 0.996-0.023 0.354-0.0719 0.73-0.145 1.12-0.0733 0.395-0.171 0.81-0.293 1.24-0.122 0.432-0.269 0.881-0.438 1.35-0.17 0.465-0.362 0.945-0.578 1.44-0.215 0.494-0.453 1-0.713 1.52-0.26 0.518-0.542 1.05-0.845 1.59s-0.627 1.09-0.972 1.64l-0.458 0.739v2.56h7.13v-2.54h-2.09c-1.25 0-2.09-0.0195-2.09-0.0491 0-0.0271 0.215-0.425 0.478-0.885 0.28-0.488 0.694-1.28 1.08-2.06 0.391-0.777 0.758-1.54 0.944-1.98 0.228-0.537 0.431-1.05 0.609-1.54 0.178-0.493 0.331-0.965 0.46-1.42 0.129-0.454 0.234-0.891 0.316-1.31 0.0818-0.421 0.14-0.825 0.176-1.22 0.0297-0.325 0.0385-0.658 0.0279-0.987-0.0106-0.329-0.0407-0.654-0.0884-0.965-0.0477-0.311-0.113-0.609-0.195-0.882-0.0816-0.273-0.179-0.521-0.291-0.734-0.0884-0.168-0.2-0.328-0.332-0.477-0.132-0.149-0.283-0.287-0.45-0.41-0.167-0.124-0.349-0.233-0.543-0.325s-0.399-0.168-0.611-0.223c-0.23-0.0596-0.6-0.0891-0.974-0.0889zm-66 0.164c-0.117-4e-3 -0.233-4e-3 -0.347 2e-3 -0.227 0.0104-0.441 0.0393-0.63 0.0889-0.194 0.0511-0.377 0.119-0.547 0.205s-0.329 0.189-0.476 0.309-0.281 0.257-0.404 0.411c-0.123 0.154-0.233 0.325-0.331 0.513-0.0983 0.188-0.185 0.393-0.259 0.614-0.074 0.221-0.136 0.459-0.185 0.714-0.0495 0.255-0.0868 0.526-0.112 0.814-0.0248 0.288-0.0372 0.592-0.0372 0.912v0.658h2.48l5.2e-4 -0.594c4.5e-4 -0.293 0.0102-0.568 0.0284-0.819s0.0449-0.477 0.0791-0.675 0.0762-0.366 0.125-0.501c0.0484-0.134 0.103-0.235 0.164-0.296 0.0574-0.0574 0.133-0.0949 0.217-0.114 0.0837-0.0193 0.176-0.0209 0.267-5e-3 0.0912 0.0155 0.181 0.0479 0.261 0.0951 0.0798 0.0472 0.149 0.11 0.199 0.186 0.0571 0.0872 0.103 0.175 0.138 0.285 0.036 0.11 0.0627 0.241 0.0822 0.414 0.0389 0.346 0.0492 0.861 0.0496 1.71 3.6e-4 0.793-1e-4 1.2-0.016 1.44-8e-3 0.12-0.0201 0.199-0.0377 0.265-0.0177 0.0662-0.0407 0.12-0.0718 0.189-0.0581 0.129-0.13 0.24-0.217 0.337-0.0873 0.0967-0.19 0.179-0.312 0.246-0.122 0.0678-0.263 0.122-0.425 0.164-0.162 0.0421-0.346 0.0721-0.553 0.0915l-0.347 0.0331v1.05c0 0.577 6e-3 1.05 0.0134 1.05 0.139 4e-3 0.376 0.0363 0.607 0.077s0.456 0.0906 0.572 0.131c0.0986 0.0346 0.193 0.0802 0.282 0.135 0.0887 0.0552 0.171 0.12 0.247 0.193 0.0757 0.0727 0.144 0.153 0.204 0.24 0.0593 0.087 0.11 0.18 0.149 0.279 0.0572 0.141 0.0865 0.229 0.102 0.496 0.0153 0.266 0.0165 0.711 0.0165 1.57 0 0.782-3e-3 1.23-0.0165 1.53-0.0138 0.297-0.0386 0.437-0.0822 0.595-0.0411 0.149-0.0937 0.276-0.157 0.379-0.0634 0.104-0.137 0.184-0.22 0.241-0.0829 0.0565-0.175 0.0886-0.275 0.0961-0.0998 8e-3 -0.207-0.01-0.321-0.0527-0.0997-0.0379-0.186-0.104-0.259-0.202-0.0737-0.0982-0.135-0.229-0.186-0.397-0.0505-0.168-0.0903-0.373-0.12-0.62-0.0301-0.247-0.0504-0.536-0.063-0.872l-0.032-0.858h-2.53l0.0336 0.594c0.0366 0.652 0.0885 1.16 0.169 1.6 0.0402 0.219 0.0878 0.419 0.144 0.61 0.0558 0.191 0.12 0.371 0.194 0.55 0.1 0.24 0.22 0.46 0.359 0.657 0.138 0.197 0.296 0.372 0.469 0.523 0.174 0.151 0.364 0.279 0.569 0.381 0.205 0.102 0.426 0.179 0.66 0.23 0.21 0.0455 0.502 0.0714 0.788 0.076 0.286 5e-3 0.567-0.012 0.755-0.0512 0.225-0.0468 0.444-0.129 0.653-0.242 0.209-0.113 0.408-0.258 0.591-0.429 0.184-0.171 0.353-0.369 0.502-0.59s0.279-0.464 0.385-0.726c0.0862-0.213 0.18-0.524 0.263-0.85 0.0821-0.326 0.152-0.668 0.189-0.944 0.035-0.261 0.0438-0.819 0.0326-1.39-0.0112-0.569-0.0423-1.15-0.0884-1.45-0.0406-0.268-0.0937-0.524-0.159-0.765-0.065-0.241-0.142-0.468-0.23-0.68-0.0881-0.211-0.188-0.406-0.298-0.584-0.11-0.178-0.231-0.339-0.361-0.481l-0.312-0.34 0.265-0.344c0.169-0.219 0.313-0.458 0.434-0.722s0.22-0.555 0.298-0.88c0.0775-0.325 0.134-0.683 0.171-1.08 0.0372-0.4 0.0553-0.841 0.0558-1.33 3.9e-4 -0.312-4e-3 -0.571-0.0165-0.795-0.0127-0.224-0.034-0.414-0.0672-0.59s-0.0783-0.337-0.14-0.503c-0.0612-0.166-0.138-0.338-0.235-0.535-0.0628-0.128-0.141-0.258-0.23-0.384-0.0888-0.127-0.188-0.25-0.293-0.364s-0.215-0.22-0.326-0.311c-0.111-0.0913-0.222-0.168-0.329-0.225-0.164-0.0879-0.361-0.162-0.575-0.22-0.214-0.0583-0.446-0.101-0.682-0.127-0.118-0.0127-0.236-0.0214-0.353-0.0253zm8.21 7e-3c-0.369 7e-5 -0.738 0.0274-0.95 0.0827-0.148 0.0386-0.289 0.0853-0.423 0.14-0.134 0.0547-0.262 0.117-0.382 0.189-0.121 0.0712-0.235 0.151-0.342 0.239-0.107 0.088-0.208 0.184-0.302 0.289-0.0943 0.105-0.182 0.219-0.264 0.342-0.0816 0.123-0.157 0.254-0.226 0.394-0.139 0.281-0.253 0.598-0.344 0.952-0.0412 0.16-0.0641 0.323-0.077 0.722-0.0129 0.4-0.016 1.04-0.016 2.15 0 1.12 3e-3 1.76 0.0165 2.17 0.0134 0.411 0.0371 0.593 0.0801 0.792 0.0638 0.297 0.147 0.565 0.249 0.806 0.102 0.241 0.223 0.456 0.365 0.644s0.304 0.351 0.487 0.488 0.387 0.25 0.613 0.339c0.125 0.049 0.227 0.0793 0.361 0.0971 0.134 0.018 0.299 0.0238 0.549 0.0253 0.298 2e-3 0.451 1e-3 0.581-0.0233 0.13-0.0247 0.236-0.0739 0.439-0.171l0.413-0.197-0.0212 2.26c-0.0118 1.25-0.0209 1.9-0.0646 2.27-0.0219 0.186-0.0522 0.302-0.0961 0.388-0.0439 0.0861-0.101 0.142-0.177 0.208-0.0769 0.0675-0.133 0.107-0.201 0.13-0.0678 0.0227-0.147 0.0284-0.272 0.0284-0.125 0-0.204-5e-3 -0.267-0.0264-0.0632-0.0213-0.111-0.059-0.175-0.123-0.0553-0.0553-0.0992-0.111-0.135-0.183-0.0362-0.0721-0.0644-0.16-0.0879-0.282-0.0468-0.242-0.0745-0.615-0.107-1.25l-0.0594-1.15h-2.53l0.0289 1.12c0.0125 0.485 0.0245 0.784 0.0475 1.02 0.0231 0.232 0.0574 0.399 0.115 0.621 0.0853 0.328 0.199 0.625 0.34 0.891 0.0704 0.133 0.148 0.257 0.232 0.374 0.0838 0.117 0.174 0.225 0.271 0.326 0.097 0.1 0.2 0.192 0.31 0.276 0.11 0.0836 0.226 0.159 0.349 0.225 0.122 0.0666 0.251 0.125 0.386 0.174 0.135 0.0494 0.275 0.0901 0.422 0.122v-5.1e-4c0.225 0.0488 0.552 0.0739 0.879 0.0744 0.327 5.5e-4 0.655-0.0233 0.882-0.0713 0.238-0.0504 0.46-0.123 0.665-0.219s0.393-0.214 0.565-0.354c0.172-0.141 0.328-0.304 0.467-0.49 0.139-0.186 0.262-0.395 0.369-0.627 0.0972-0.211 0.169-0.34 0.221-0.519 0.0526-0.179 0.0867-0.408 0.109-0.818 0.0446-0.82 0.0428-2.36 0.0517-5.68 7e-3 -2.63 8e-3 -4.14-1e-3 -5.03-9e-3 -0.895-0.0297-1.18-0.0667-1.38-0.0338-0.181-0.0757-0.353-0.126-0.516-0.0499-0.164-0.108-0.318-0.174-0.465-0.0658-0.147-0.14-0.285-0.221-0.414-0.0815-0.129-0.171-0.25-0.268-0.362-0.0971-0.112-0.202-0.215-0.315-0.31-0.113-0.0946-0.233-0.18-0.361-0.257-0.128-0.0769-0.264-0.145-0.407-0.204-0.143-0.0591-0.294-0.109-0.452-0.15-0.213-0.0552-0.582-0.0828-0.951-0.0827zm46.1 5e-3v9.4h1.11c0.519 0 0.796-1e-3 0.944-0.0139 0.0738-6e-3 0.115-0.0157 0.138-0.0289 0.0229-0.0132 0.0274-0.0307 0.0274-0.0532 0-0.0996 0.03-0.216 0.0806-0.336 0.0506-0.121 0.122-0.245 0.205-0.361 0.0826-0.115 0.176-0.222 0.272-0.306s0.194-0.146 0.285-0.174c0.0958-0.0287 0.191-0.0358 0.283-0.0227 0.0916 0.0131 0.179 0.0464 0.261 0.0977 0.0816 0.0513 0.157 0.121 0.223 0.207 0.0661 0.086 0.123 0.188 0.168 0.305 0.0393 0.102 0.0626 0.23 0.0785 0.549 0.016 0.319 0.0242 0.83 0.0336 1.7 0.012 1.12 2e-3 2.07-0.0279 2.79-0.015 0.363-0.0353 0.671-0.06 0.915-0.0246 0.245-0.0536 0.426-0.0873 0.538-0.0263 0.0873-0.0651 0.176-0.111 0.257-0.0455 0.0805-0.0979 0.152-0.151 0.205-0.073 0.073-0.126 0.117-0.187 0.142-0.0601 0.0254-0.127 0.0326-0.227 0.0326-0.0756 0-0.145-0.0103-0.209-0.0315-0.0639-0.0212-0.122-0.0537-0.175-0.0982-0.0529-0.0444-0.101-0.101-0.143-0.171-0.0425-0.0696-0.0794-0.152-0.112-0.249-0.0655-0.193-0.112-0.442-0.143-0.756-0.0304-0.313-0.0444-0.69-0.045-1.14l-1e-3 -0.673h-2.61l0.0346 0.798c0.019 0.439 0.0715 1.04 0.116 1.35 0.034 0.229 0.0767 0.447 0.129 0.652 0.052 0.205 0.113 0.398 0.183 0.579 0.0699 0.181 0.149 0.35 0.236 0.507 0.0876 0.157 0.184 0.301 0.289 0.434 0.105 0.132 0.219 0.253 0.342 0.361 0.123 0.108 0.254 0.203 0.394 0.286 0.14 0.0831 0.289 0.154 0.446 0.212 0.157 0.0583 0.323 0.104 0.498 0.137v-5.2e-4c0.232 0.0442 0.573 0.06 0.909 0.0501 0.336-0.01 0.665-0.0456 0.874-0.103 0.157-0.043 0.306-0.0953 0.447-0.158 0.141-0.0623 0.274-0.134 0.4-0.217 0.126-0.082 0.243-0.174 0.353-0.276s0.213-0.214 0.309-0.337c0.0953-0.122 0.183-0.255 0.264-0.398 0.0806-0.143 0.154-0.297 0.22-0.461 0.132-0.329 0.236-0.7 0.312-1.12 0.0284-0.155 0.0534-0.545 0.0734-1.06s0.0353-1.15 0.0439-1.8c0.0086-0.647 0.0104-1.3 0.0047-1.86-0.0058-0.555-0.0192-1.01-0.0424-1.24-0.0259-0.266-0.0646-0.517-0.116-0.752-0.0512-0.236-0.115-0.456-0.191-0.661-0.0756-0.205-0.163-0.394-0.262-0.567-0.0991-0.173-0.21-0.331-0.332-0.471s-0.255-0.265-0.398-0.372c-0.144-0.107-0.298-0.196-0.463-0.269-0.165-0.0722-0.34-0.127-0.525-0.164-0.185-0.0366-0.38-0.0548-0.584-0.0548-0.171 0-0.288 6e-3 -0.398 0.0284-0.11 0.0223-0.212 0.0604-0.351 0.124-0.185 0.0838-0.427 0.215-0.539 0.291s-0.222 0.138-0.244 0.138c-0.0224 0-0.0408-0.844-0.0408-1.88v-1.87h4.12v-2.59h-3.17zm-46.1 2.18c0.0452-2e-4 0.0906 5e-3 0.136 0.0129l-5.2e-4 5.1e-4c0.0906 0.0172 0.18 0.0509 0.263 0.0982 0.0827 0.0473 0.159 0.108 0.222 0.179 0.0636 0.071 0.115 0.152 0.148 0.24 0.0371 0.0981 0.0564 1.08 0.0563 2.88-5e-5 1.5 1e-3 2.24-0.0393 2.63-0.0202 0.197-0.0509 0.307-0.0971 0.384-0.0463 0.0765-0.108 0.119-0.192 0.18-0.086 0.063-0.255 0.113-0.423 0.126-0.0844 6e-3 -0.161 4e-3 -0.23-8e-3 -0.0699-0.0115-0.133-0.0329-0.192-0.0641-0.0589-0.0312-0.113-0.0724-0.164-0.125-0.0513-0.0527-0.0995-0.117-0.147-0.193l-0.127-0.204-0.015-2.67c-7e-3 -1.17-8e-3 -1.85 2e-3 -2.25s0.0305-0.541 0.0677-0.639c0.0493-0.129 0.142-0.259 0.251-0.363 0.109-0.104 0.234-0.181 0.347-0.206 0.0437-0.01 0.0887-0.0143 0.134-0.0145z" fill="#800000"/></g></g></svg>
