<?xml version="1.0" encoding="UTF-8" standalone="no"?>
<!-- Created with Inkscape (http://www.inkscape.org/) -->

<svg
   width="1024mm"
   height="1024mm"
   viewBox="0 0 1024 1024"
   version="1.1"
   id="svg1"
   xml:space="preserve"
   inkscape:version="1.3 (0e150ed6c4, 2023-07-21)"
   sodipodi:docname="troy-frc-logo-vectorized.svg"
   xmlns:inkscape="http://www.inkscape.org/namespaces/inkscape"
   xmlns:sodipodi="http://sodipodi.sourceforge.net/DTD/sodipodi-0.dtd"
   xmlns="http://www.w3.org/2000/svg"
   xmlns:svg="http://www.w3.org/2000/svg"><sodipodi:namedview
     id="namedview1"
     pagecolor="#ffffff"
     bordercolor="#000000"
     borderopacity="0.25"
     inkscape:showpageshadow="2"
     inkscape:pageopacity="0.0"
     inkscape:pagecheckerboard="0"
     inkscape:deskcolor="#d1d1d1"
     inkscape:document-units="mm"
     inkscape:zoom="0.0625"
     inkscape:cx="3040"
     inkscape:cy="1360"
     inkscape:window-width="1920"
     inkscape:window-height="1112"
     inkscape:window-x="-8"
     inkscape:window-y="-8"
     inkscape:window-maximized="1"
     inkscape:current-layer="layer1" /><defs
     id="defs1" /><g
     inkscape:label="Layer 1"
     inkscape:groupmode="layer"
     id="layer1"
     transform="translate(226.56554,-178.60247)"><g
       id="g112"
       style="display:none;fill:#000000;fill-opacity:1"
       inkscape:label="warrior"
       transform="matrix(6.7592697,0,0,6.7592697,-1193.6322,-256.86354)"><path
         d="m 116.99804,147.19965 -0.35244,0.19379 c -0.19409,0.10669 -0.69204,0.41109 -1.10639,0.67644 l -0.75344,0.48266 v 4.2137 4.21369 l -0.5457,0.7519 -0.54571,0.75137 0.15762,2.38849 0.15761,2.38848 -0.36484,0.41083 c -0.57526,0.64845 -1.53769,1.67829 -2.44171,2.62309 -0.90402,0.94481 -1.74921,1.80481 -2.09083,2.1146 l -0.46043,0.41755 -0.0863,-0.0868 -0.0868,-0.0863 0.0651,-0.92655 c 0.0667,-0.94833 0.26714,-3.10153 0.48421,-5.28444 0.21707,-2.18291 0.45083,-4.39545 0.58446,-5.46116 l 0.15503,-1.23817 0.0661,-0.0444 c 0.23145,-0.15572 0.77416,-0.45872 1.63556,-0.91364 l 0.98805,-0.52193 0.40463,-0.87437 c 0.23688,-0.51182 0.42168,-0.9316 0.54157,-1.22938 0.11989,-0.29777 0.17491,-0.47311 0.15296,-0.49506 -0.0284,-0.0284 -1.01024,0.24459 -2.22519,0.60565 -1.21495,0.36106 -2.663,0.80993 -3.62355,1.13223 l -0.81856,0.27492 0.0155,0.50178 c 0.0147,0.47309 0.30263,3.60159 0.35243,3.82922 l 0.0233,0.10594 -0.71623,0.63355 c -0.39393,0.34862 -0.81264,0.69938 -0.93018,0.77928 l -0.21342,0.14521 h -0.15348 c -0.0708,0 -0.18093,-0.0411 -0.31419,-0.1111 -0.13327,-0.07 -0.2893,-0.1686 -0.45165,-0.28474 -0.16236,-0.11614 -0.33081,-0.24971 -0.48886,-0.38809 -0.15805,-0.13838 -0.30598,-0.28185 -0.42633,-0.41858 l -0.20413,-0.23203 -0.061,-0.29455 -0.061,-0.29456 0.0351,-0.40101 c 0.0193,-0.22066 0.0826,-0.80526 0.14056,-1.29914 0.058,-0.49388 0.12429,-1.17124 0.14779,-1.50534 l 0.0429,-0.60771 -0.046,-0.0889 -0.0455,-0.0889 -1.12242,-0.37 c -1.07067,-0.35274 -2.415013,-0.77049 -3.504174,-1.09554 -1.089161,-0.32505 -1.923093,-0.55751 -1.97404,-0.53951 l -0.04909,0.0176 0.254248,0.6072 c 0.139719,0.3341 0.395148,0.9163 0.567924,1.29398 l 0.314192,0.68678 1.033529,0.53588 c 0.568577,0.29471 1.164701,0.61973 1.324461,0.72192 l 0.29043,0.18552 0.0568,0.33487 c 0.0689,0.40591 0.18319,1.31963 0.31574,2.4784 0.13256,1.15876 0.28351,2.56238 0.42582,3.94859 0.1423,1.38622 0.27601,2.7549 0.37413,3.84318 0.0981,1.08828 0.16072,1.89616 0.16072,2.16111 v 0.28474 l -0.0915,0.0512 -0.0909,0.0512 -0.0848,-0.0455 c -0.10581,-0.0566 -2.728583,-2.79669 -4.175453,-4.36201 l -1.079521,-1.16737 0.155546,-2.39778 0.155546,-2.39779 -0.56379,-0.79117 -0.56379,-0.79065 v -4.1832 -4.18373 l -0.77928,-0.49713 c -0.428514,-0.27346 -0.913109,-0.57277 -1.076937,-0.66507 l -0.298173,-0.16795 -0.03204,0.0842 c -0.01775,0.0462 -0.03208,1.32404 -0.03204,2.83962 v 2.75591 l 0.05529,1.79575 c 0.03034,0.98776 0.07498,2.0361 0.09973,2.32958 l 0.04496,0.53381 0.0801,0.154 c 0.0438,0.0847 0.232389,0.36743 0.419613,0.62839 0.148477,0.20696 0.257615,0.35031 0.336413,0.478 0.0788,0.1277 0.127504,0.23947 0.154513,0.38293 0.02701,0.14345 0.03273,0.31884 0.02584,0.57309 -0.0069,0.25424 -0.0262,0.58742 -0.04909,1.04748 -0.03615,0.72629 -0.0821,1.82973 -0.101803,2.45204 l -0.03566,1.13172 3.415296,3.13676 3.41478,3.13676 0.86352,0.42478 c 1.02133,0.50244 2.33065,1.11997 2.73833,1.29139 0.15978,0.0672 0.29631,0.12303 0.30231,0.12403 0.0453,0.009 1.4284,-0.61749 2.56883,-1.16324 l 1.36529,-0.65371 3.36207,-3.08353 c 1.84914,-1.69589 3.39095,-3.11049 3.42615,-3.14399 l 0.0641,-0.061 -0.0863,-2.6939 -0.0858,-2.69389 0.555,-0.77566 0.55501,-0.77515 0.0346,-1.23196 c 0.0191,-0.67758 0.0506,-2.89579 0.0698,-4.92942 l 0.0351,-3.69745 -0.0377,-0.20154 z"
         style="fill:#000000;fill-opacity:1"
         id="path109" /><path
         d="m 105.14863,115.40469 -2.43137,2.46549 c -1.33724,1.35594 -2.43785,2.49242 -2.44585,2.52542 -0.0127,0.0514 3.80091,16.208 3.86901,16.39125 l 0.0248,0.0662 h 1.00511 c 0.5529,0 1.00562,-0.0115 1.00562,-0.0258 0,-0.0363 3.85368,-16.2552 3.88038,-16.3313 l 0.0217,-0.062 -1.4056,-1.44333 c -0.77305,-0.79394 -1.88196,-1.92547 -2.46445,-2.51457 z"
         style="fill:#000000;fill-opacity:1"
         id="path101" /><path
         d="m 105.10884,137.85862 -0.24546,0.16743 c -2.30029,1.5664 -4.7731,3.28731 -6.764964,4.69946 -0.995931,0.70607 -1.871672,1.33495 -2.545581,1.82883 -0.673908,0.49387 -1.146193,0.85262 -1.334802,1.01854 l -0.04599,0.0408 0.38964,0.2496 c 0.257028,0.1648 0.505966,0.31296 0.736389,0.43873 0.230424,0.12578 0.44205,0.22943 0.624252,0.30438 0.163018,0.0671 0.325765,0.1223 0.361735,0.12299 0.04672,9e-4 0.667181,-0.40156 1.538407,-0.99012 0.871226,-0.58856 1.993507,-1.36317 3.044774,-2.10582 2.09761,-1.48181 3.81501,-2.66821 4.13463,-2.85615 l 0.22531,-0.1323 0.27647,0.16744 c 0.39557,0.24021 1.9827,1.33608 4.23747,2.9254 1.07492,0.75767 2.49477,1.74118 3.15484,2.1854 l 1.19993,0.8077 h 0.12351 0.12402 l 0.44597,-0.2279 c 0.25962,-0.13248 0.57443,-0.31499 0.84077,-0.48265 0.26634,-0.16767 0.48422,-0.32029 0.54932,-0.39223 l 0.0904,-0.0997 -0.78187,-0.57775 c -1.27769,-0.94366 -3.34591,-2.39955 -5.27978,-3.73103 -0.96693,-0.66575 -1.90046,-1.30029 -2.68459,-1.82418 -0.78413,-0.52389 -1.41895,-0.93679 -1.78904,-1.15962 z"
         style="fill:#000000;fill-opacity:1"
         id="path108" /><path
         d="m 101.94314,133.51522 -0.16846,0.032 -0.16795,0.032 -3.01067,2.19366 c -0.894606,0.65179 -1.527721,1.09394 -1.993677,1.44281 -0.232977,0.17443 -0.424282,0.32538 -0.585494,0.46767 -0.161211,0.14228 -0.292617,0.27577 -0.405659,0.41496 -0.113043,0.13919 -0.207635,0.28443 -0.296106,0.44958 -0.08847,0.16516 -0.170885,0.35034 -0.258383,0.57051 -0.174994,0.44036 -0.371511,1.0199 -0.684196,1.85467 l -1.038696,2.77296 0.02584,0.2067 0.02532,0.20671 0.09819,0.13126 c 0.0539,0.0722 0.180309,0.17564 0.280603,0.22944 l 0.181901,0.0977 h 0.162264 0.162264 l 0.234611,-0.14935 c 0.129158,-0.0822 2.239032,-1.65183 4.688603,-3.48816 l 4.453985,-3.33881 0.0755,-0.18138 c 0.0292,-0.07 0.0514,-0.123 0.0574,-0.18966 0.006,-0.0667 -0.004,-0.14672 -0.0377,-0.27026 -0.0675,-0.24708 -0.2309,-0.66836 -0.55604,-1.50431 l -0.61236,-1.57458 -0.13591,-0.14366 -0.13591,-0.14417 -0.17931,-0.0594 z"
         style="fill:#000000;fill-opacity:1"
         id="path106"
         inkscape:label="path106" /><path
         d="m 108.2425,133.5147 0.16847,0.0326 0.16794,0.0326 3.02618,2.20865 c 1.66426,1.21477 3.05766,2.25466 3.09645,2.31046 0.0472,0.0679 0.57073,1.44166 1.08675,2.82515 0.51602,1.38348 1.02451,2.77651 1.0418,2.88148 l 0.0274,0.16484 -0.092,0.19276 -0.0915,0.19275 -0.15658,0.11162 -0.15658,0.11162 -0.21963,0.0202 -0.22014,0.0202 -0.14624,-0.0822 c -0.0805,-0.0453 -2.17872,-1.6042 -4.66277,-3.46438 l -4.51652,-3.38223 -0.0801,-0.12247 c -0.0442,-0.0675 -0.0935,-0.20391 -0.10955,-0.30282 l -0.0295,-0.17984 0.6165,-1.58181 0.61599,-1.58234 0.13746,-0.14366 0.13694,-0.14417 0.17983,-0.0594 z"
         style="fill:#000000;fill-opacity:1"
         id="path104" /><path
         style="fill:#323232"
         d="m 99.731498,133.93852 -0.184876,-0.12447 -2.074634,-4.09275 -2.074635,-4.09276 0.02123,-0.22373 0.02123,-0.22373 0.08171,-0.1247 c 0.08919,-0.13612 3.000627,-2.43391 3.273981,-2.58392 l 0.16844,-0.0924 h 0.160113 0.160113 l 0.184051,0.0984 0.184051,0.0984 0.09145,0.15569 0.09145,0.15568 1.110238,4.7032 1.11024,4.70321 -2e-4,0.206 -2e-4,0.20601 -0.0971,0.15846 -0.0971,0.15847 -0.70823,0.49751 -0.70822,0.49751 -0.26411,0.0222 -0.264108,0.0222 z m 9.955152,-0.12475 c -0.20242,-0.13804 -0.55115,-0.38162 -0.77494,-0.54129 l -0.4069,-0.2903 -0.0817,-0.17217 c -0.12706,-0.26775 -0.14449,-0.18015 1.03259,-5.18774 l 1.1143,-4.74045 0.0923,-0.13205 c 0.0507,-0.0726 0.17083,-0.18554 0.26688,-0.2509 l 0.17462,-0.11885 h 0.19611 0.1961 l 0.19268,0.13075 c 0.34013,0.23082 3.01319,2.33671 3.1442,2.47707 l 0.12644,0.13545 0.0247,0.25676 0.0247,0.25675 -2.04411,4.03672 -2.04411,4.03672 -0.1502,0.15382 -0.1502,0.15381 -0.28265,0.0234 -0.28265,0.0234 z"
         id="path61"
         sodipodi:nodetypes="ccccccsscccccccccccccccccccscssccscccsscccccccccc" /></g><rect
       style="fill:#4d4d4d;fill-opacity:1;stroke:none;stroke-width:0.636556;stroke-linejoin:bevel;stroke-opacity:1;paint-order:stroke markers fill"
       id="rect159"
       width="1024"
       height="1024"
       x="-226.56554"
       y="178.60246"
       inkscape:label="bg" /><g
       id="g159"
       inkscape:label="thinger"
       transform="matrix(6.7592696,0,0,6.7592696,1106.8441,-1520.1802)"><path
         id="path97"
         style="fill:#999999;fill-opacity:1;stroke:none;stroke-width:0.254;stroke-linejoin:bevel;stroke-opacity:1;paint-order:stroke markers fill"
         d="m 88.212198,114.21769 0.187069,62.76826 17.025313,10.94455 17.96015,-11.22515 0.0253,-16.93179 27.0092,0.0935 -5.70611,-16.4636 5.70611,-15.06058 H 124.4141 l -0.84181,-0.93534 -0.15296,26.41027 0.0589,-39.13249 z m -0.57981,12.86329 -0.841809,0.93586 H 60.785448 l 5.706112,15.06058 -5.706112,16.4636 27.034009,-0.0935 z"
         inkscape:label="fg bg"
         transform="translate(-227.49982,180.35348)" /><path
         id="path135"
         style="display:inline;fill:#000000"
         d="m -140.39883,293.68584 v 6.62905 6.62906 h -13.54853 c -7.82658,0 -13.54904,0.02 -13.54904,0.047 0,0.0257 1.37477,3.77937 3.05459,8.34161 l 3.05408,8.2951 -3.02049,8.20467 c -1.66122,4.51249 -3.03719,8.2577 -3.05769,8.323 l -0.0372,0.11886 13.53871,0.0134 13.53922,0.0129 0.0264,8.71523 0.0264,8.71523 9.34879,6.00842 h 5.1e-4 c 5.1419,3.3044 9.37301,6.00036 9.40201,5.99136 0.029,-0.009 4.25257,-2.71294 9.38599,-6.0079 l 9.3338,-5.99085 0.003,-8.43824 0.003,-8.43825 h 13.575397 c 7.466298,0 13.574882,-0.0142 13.574882,-0.0315 0,-0.0173 -1.358548,-3.71932 -3.019454,-8.22689 -1.660905,-4.50756 -3.029458,-8.25506 -3.041158,-8.32766 -0.0068,-0.0421 0.263399,-0.82353 0.77773,-2.25257 0.514331,-1.42905 1.272958,-3.50597 2.24224,-6.13813 1.672615,-4.5421 3.040642,-8.27965 3.040642,-8.30595 0,-0.0284 -5.509556,-0.0481 -13.574882,-0.0481 h -13.575397 v -6.91948 -6.91947 h -18.75131 z m 1.99057,2.03347 h 16.7659 16.76591 v 30.44775 30.44724 l -3.11609,2.00091 c -1.71405,1.1004 -3.15259,1.99101 -3.19619,1.97921 -0.0436,-0.0118 -2.41356,-1.52253 -5.26686,-3.35742 l -5.1878,-3.33623 -5.19141,3.33623 h -5.2e-4 c -2.85537,1.83477 -5.2273,3.34542 -5.271,3.35742 -0.0437,0.0119 -1.48171,-0.87991 -3.19567,-1.98179 l -3.11609,-2.0035 0.005,-30.44465 z m -14.19086,13.12581 v 5.2e-4 h 12.20287 c 0.01,0.006 -0.0284,1.96911 -0.0284,1.96911 l -11.70678,0.0134 -11.75794,-0.0531 -0.9126,-1.90245 c 0,0 12.20348,-0.0412 12.20287,-0.0274 z m 49.70342,0.58136 12.231813,-3e-5 12.232328,3e-5 -0.03721,0.11886 c -0.02038,0.0654 -0.17908,0.50511 -0.35295,0.9772 l -0.316777,0.85834 -11.878344,-8e-5 -11.87887,8e-5 v -0.9772 z m 5.2e-4,3.90881 h 11.515057 c 6.33328,0 11.514933,0.006 11.514543,0.0134 -3.9e-4,0.007 -0.899546,2.45336 -1.997811,5.43585 l -1.996777,5.42292 1.854667,5.03587 c 1.019847,2.76978 1.918061,5.20817 1.99626,5.41879 l 0.142111,0.38292 h -11.514026 -11.514024 v -10.85463 z m -48.83319,0.0129 11.3037,0.0134 0.0134,10.84172 0.0129,10.84171 h -11.59257 c -4.62623,0 -7.52309,-0.004 -9.26093,-0.0134 -1.73786,-0.01 -2.31689,-0.0264 -2.30684,-0.0527 0.0139,-0.0363 0.95997,-2.60526 2.1022,-5.7087 l 2.07687,-5.64255 -1.88619,-5.12372 c -0.59353,-1.61246 -1.05963,-2.89583 -1.37252,-3.77754 -0.3129,-0.88172 -0.47252,-1.36176 -0.45372,-1.36891 0.0328,-0.012 5.14655,-0.0159 11.36365,-0.009 z m 48.82751,23.58359 23.756683,-2e-5 0.230477,0.62012 0.322461,0.8847 0.156063,0.44958 -24.466724,0.002 z m -61.4169,0 h 11.96103 11.96103 l -0.0145,0.79425 -0.015,0.67334 -12.1884,0.0134 c -6.70372,0.007 -12.18997,-0.0237 -12.18892,-0.0269 z m 43.1653,20.26541 0.14004,0.032 c 0.0773,0.0174 0.26922,0.0633 0.42633,0.10232 l 0.28525,0.0713 0.0439,0.0687 0.0439,0.0687 5.2e-4,0.38189 0.001,0.38189 0.13849,0.091 0.13901,0.0909 0.3793,-0.19534 c 0.11949,-0.0615 0.20622,-0.10806 0.27492,-0.13746 0.0687,-0.0296 0.11918,-0.0416 0.16588,-0.0346 0.0468,0.007 0.0901,0.034 0.14366,0.0822 0.0536,0.0482 0.11741,0.11775 0.20671,0.21135 l 0.30282,0.31729 -0.17053,0.30335 c -0.0936,0.167 -0.19027,0.32638 -0.21497,0.35398 -0.0378,0.0426 -0.0507,0.1013 -0.0398,0.1633 0.0109,0.062 0.0455,0.12711 0.10076,0.18241 l 0.10542,0.10594 0.30386,5.2e-4 c 0.16704,4e-4 0.3571,0.0151 0.4222,0.0326 l 0.11834,0.0315 0.0532,0.1974 c 0.0292,0.10861 0.0678,0.30507 0.0858,0.43615 l 0.0326,0.23823 -0.40204,0.22221 -0.40256,0.22221 v 0.17104 0.17157 l 0.34313,0.25942 0.34365,0.25941 -0.003,0.10697 c -0.002,0.0589 -0.0579,0.24944 -0.12506,0.42375 l -0.12196,0.31678 -0.45682,-0.0181 -0.45682,-0.0181 -0.10335,0.12402 c -0.034,0.0407 -0.0598,0.0752 -0.076,0.11163 -0.0162,0.0364 -0.0232,0.0743 -0.0212,0.12092 0.004,0.0933 0.0462,0.22166 0.12816,0.44287 l 0.13849,0.3731 -0.062,0.0744 c -0.0339,0.0409 -0.19037,0.1629 -0.34778,0.27131 l -0.28629,0.1974 -0.30283,-0.23254 c -0.16658,-0.12766 -0.33193,-0.25004 -0.36793,-0.27234 l -0.0656,-0.0403 -0.20722,0.0827 -0.20774,0.0832 -0.0899,0.4191 -0.0904,0.4191 -0.0574,0.0356 -5.2e-4,-5.1e-4 c -0.0314,0.0196 -0.22817,0.0465 -0.4377,0.0599 l -0.38137,0.0243 -0.14211,-0.42737 -0.14263,-0.42788 -0.1943,-0.0537 c -0.14132,-0.0395 -0.21051,-0.0598 -0.28371,-0.0305 -0.0732,0.0293 -0.15022,0.10795 -0.30644,0.26613 l -0.2868,0.29043 h -0.0739 c -0.0405,0 -0.21336,-0.0742 -0.38447,-0.16537 l -0.31109,-0.16588 -10e-4,-0.0853 c -3e-4,-0.0468 0.0399,-0.2585 0.0894,-0.47025 l 0.0904,-0.38499 -0.16692,-0.16692 -0.16691,-0.16639 -0.4377,0.0837 c -0.13017,0.025 -0.22386,0.0453 -0.29456,0.0553 -0.0707,0.0102 -0.11828,0.01 -0.15658,-0.007 -0.0382,-0.0171 -0.0669,-0.0509 -0.0997,-0.10697 -0.0328,-0.0561 -0.0696,-0.13468 -0.12403,-0.24185 l -0.17725,-0.34829 0.33073,-0.33383 0.33073,-0.33332 -0.0444,-0.22582 -0.045,-0.22583 -0.41548,-0.15813 -0.41496,-0.15813 0.0248,-0.39222 0.0253,-0.39171 0.0512,-0.0512 c 0.0279,-0.0279 0.22603,-0.0842 0.4408,-0.12506 l 0.39067,-0.0744 0.0708,-0.0966 c 0.0388,-0.0531 0.084,-0.14935 0.10025,-0.21445 l 0.0295,-0.11834 -0.2434,-0.32763 c -0.0742,-0.0999 -0.1293,-0.17314 -0.1664,-0.23254 -0.037,-0.0594 -0.056,-0.10487 -0.0558,-0.14987 10e-5,-0.045 0.0193,-0.0891 0.0568,-0.14572 0.0375,-0.0566 0.0935,-0.12543 0.16847,-0.21963 l 0.24546,-0.30851 0.11059,0.0253 c 0.061,0.0139 0.25964,0.0814 0.44132,0.14987 l 0.33021,0.12454 0.14521,-0.0822 0.14521,-0.0822 v -0.47129 -0.47181 l 0.31678,-0.11679 c 0.17431,-0.0641 0.37065,-0.11737 0.43615,-0.11937 l 0.11937,-0.003 0.24701,0.34365 0.24702,0.34313 h 0.17363 0.17415 l 0.21704,-0.39584 z m -0.43719,1.67535 -0.37413,0.062 -0.37362,0.0615 -0.27285,0.12919 c -0.14994,0.0709 -0.37625,0.21782 -0.50333,0.32659 l -0.23151,0.19792 -0.19637,0.30386 -0.19637,0.30386 -0.0925,0.34209 -0.0925,0.34159 0.0243,0.41651 0.0238,0.41651 0.15968,0.33951 0.15968,0.339 0.2403,0.26407 0.23978,0.26406 0.28318,0.17002 0.28319,0.1695 0.29042,0.078 c 0.15978,0.0428 0.41014,0.0796 0.55656,0.0816 l 0.26665,0.003 0.31471,-0.0822 c 0.19323,-0.0503 0.37048,-0.12202 0.54105,-0.21962 0.17058,-0.0976 0.33414,-0.22136 0.50023,-0.37672 l 0.25321,-0.23668 0.19689,-0.39791 0.19689,-0.39842 v -0.58395 -0.58342 l -0.17054,-0.35967 -0.17001,-0.35915 -0.30541,-0.30438 -0.30489,-0.30437 -0.29094,-0.13694 c -0.15979,-0.0752 -0.4398,-0.16626 -0.6227,-0.20206 z"
         inkscape:label="border"
         sodipodi:nodetypes="cccsscccccccccccsccccsssssssscccccccccccscccccccccccccccccccccccccccccsscccccccccccccscccccscccccccccccsccccccccccccccccccscccccsccccccccccccccccccccsscccccccccccccccccccsscsccccccccccsccccccccccsccccccccsccccccccccccccccccccccccccccccccccccccccsccccccccccscc" /><path
         style="fill:#ffffff;fill-opacity:1;stroke-width:1.34928"
         d="m 250.0946,1114.8331 c -7.52334,-2.0937 -12.15804,-9.1603 -12.16778,-18.5522 -0.0135,-8.4747 3.18373,-56.3828 3.93703,-59.0797 5.67,-20.2998 31.89668,-17.828 34.06373,3.2104 0.31653,3.0729 -2.84951,56.3657 -3.56299,59.9746 -2.19162,11.0852 -11.84532,17.3477 -22.26999,14.4469 z m 7.38492,-12.507 c 1.15119,-0.8063 2.17326,-3.0232 2.40466,-5.2157 0.63334,-6.0007 3.32256,-55.9763 3.07066,-57.0643 -1.12719,-4.8692 -6.28163,-5.5746 -8.19717,-1.1217 -1.03421,2.4042 -4.40333,57.9483 -3.66461,60.4142 0.93288,3.1134 4.09475,4.5926 6.38646,2.9875 z m 62.04757,10.5125 c -0.0999,-0.4675 -1.81922,-17.5573 -3.82151,-37.9773 -2.11713,-21.5906 -3.99626,-37.6006 -3.99626,-37.6006 0,0 -2.46846,0.083 -6.14345,0.4578 -3.27332,0.3329 -5.99976,0.5529 -6.0586,0.4888 -0.21304,-0.2313 -1.3529,-12.8114 -1.17682,-12.9876 0.0999,-0.1 8.61638,-1.0254 18.92677,-2.0575 l 18.74597,-1.8769 0.39897,3.9406 c 0.21953,2.1673 0.50153,5.1536 0.6266,6.6363 l 0.22748,2.6959 -6.0115,0.6215 c -3.30622,0.3418 -6.09568,0.7057 -6.19878,0.8088 -0.16892,0.1688 6.9062,72.6808 7.34836,75.3138 0.18458,1.0985 0.18458,1.0985 -4.39535,1.5335 -2.51881,0.2395 -5.41486,0.5291 -6.43545,0.644 -1.74217,0.1965 -1.86671,0.1571 -2.03643,-0.6411 z m -140.33282,-9.1196 c -12.43156,-2.691 -16.94942,-3.8694 -16.80223,-4.3828 0.0878,-0.306 4.59425,-19.9143 10.01437,-43.574 5.42012,-23.6595 9.91572,-43.2 9.99021,-43.423 0.30007,-0.8979 15.65979,3.114 20.07188,5.2427 14.28544,6.8927 14.08347,31.025 -0.33745,40.2998 -2.81065,1.8078 -2.68233,1.5083 -1.35588,3.167 8.36961,10.4671 2.44136,35.5461 -9.75152,41.2535 -3.05688,1.4308 -8.66226,2.1021 -11.82938,1.4168 z m 6.11783,-14.1318 c 5.04354,-3.3706 8.26315,-18.2201 5.07039,-23.3861 -1.35116,-2.1863 -6.07289,-4.1567 -6.48806,-2.7075 -0.50584,1.7651 -5.94957,25.8257 -5.94957,26.2961 0,1.4909 5.04098,1.3523 7.36724,-0.2025 z m 7.09051,-38.146 c 5.76593,-1.4519 9.88712,-14.2598 6.46633,-20.0967 -1.42442,-2.4308 -6.35839,-4.9626 -6.78975,-3.4843 -0.41922,1.4367 -5.2095,22.6798 -5.2095,23.1024 0,0.4301 0.88079,0.6586 3.14404,0.8157 0.45308,0.031 1.52805,-0.1202 2.38888,-0.3371 z m 189.22722,52.0934 c -0.34569,-1.0568 -20.90749,-86.5372 -20.90628,-86.9128 0.001,-0.3433 12.08224,-3.5294 12.33955,-3.2542 0.14679,0.1569 21.21822,87.4964 21.127,87.57 -0.0471,0.038 -2.57654,0.6639 -5.6198,1.3898 -3.0434,0.7263 -5.81532,1.4009 -6.15992,1.4993 -0.34461,0.099 -0.69582,-0.034 -0.78055,-0.2921 z m 57.26672,-19.2886 c -3.891,-1.3655 -7.15621,-4.157 -9.98912,-8.5401 -1.48352,-2.2952 -21.44235,-51.8791 -22.54144,-55.9999 -5.54157,-20.77635 19.77639,-32.12513 31.34011,-14.0481 1.48728,2.3252 6.63363,14.8057 6.25868,15.1783 -0.32194,0.3199 -10.11096,4.2257 -10.57929,4.2212 -0.20333,0 -1.54653,-2.9663 -2.98498,-6.5873 -3.3525,-8.4401 -4.91414,-10.1173 -8.516,-9.1474 -2.70796,0.729 -3.53925,2.6328 -3.11921,5.5347 0.56776,3.9231 3.99232,12.0655 10.0918,27.3147 11.85745,29.6442 12.04728,30.0118 15.50099,30.0118 5.29815,0 5.91152,-3.8548 2.12509,-13.3568 -1.40162,-3.5176 -2.48427,-6.4994 -2.40587,-6.6264 0.18713,-0.3027 10.88192,-4.4364 11.00593,-4.254 0.4779,0.7034 5.00197,12.8082 5.45439,14.5939 3.44535,13.5997 -9.04424,26.1265 -21.64108,21.7054 z m -327.70924,-1.3426 c -11.651697,-2.0995 -17.394142,-11.2096 -14.435086,-22.9001 0.823871,-3.2547 21.767776,-53.2635 23.368396,-55.7978 11.38035,-18.01991 36.46988,-7.45479 31.57772,13.2973 -0.64751,2.7466 -21.51236,53.0102 -23.12284,55.7032 -4.07355,6.8113 -11.23612,10.806 -17.38819,9.6974 z m 3.32038,-12.9873 c 0.63537,-0.2655 1.58781,-1.0496 2.11619,-1.7424 1.05324,-1.3808 22.2137,-51.8947 22.76002,-54.3319 1.44141,-6.432 -5.54102,-8.6252 -8.56835,-2.6912 -3.70211,7.2567 -21.91243,52.4975 -21.92969,54.4806 -0.0311,3.5832 2.56535,5.562 5.62183,4.2849 z m -63.831398,-17.2189 c -2.944776,-1.8502 -5.309351,-3.5642 -5.254701,-3.8087 0.05389,-0.2446 3.239701,-8.2792 7.078093,-17.8549 3.838233,-9.5757 6.924673,-17.5724 6.858691,-17.7703 -0.06615,-0.198 -0.79349,-0.7615 -1.616682,-1.2524 l -1.496602,-0.8925 -1.194233,1.8841 c -0.656819,1.0362 -5.202885,8.2714 -10.102319,16.078 -6.577261,10.4801 -9.047351,14.1406 -9.440518,13.99 -1.123268,-0.4299 -10.346281,-6.4204 -10.263975,-6.6667 0.258518,-0.7737 47.61235,-75.93176 47.849014,-75.94404 0.428523,-0.0216 11.575846,7.03843 13.861642,8.77991 10.399431,7.92313 10.965309,18.96104 1.683059,32.82663 -4.585731,6.8499 -11.166893,12.2657 -14.934572,12.2901 -1.497143,0.013 -1.455447,-0.081 -9.63318,21.0574 -4.367701,11.2897 -7.963353,20.5542 -7.990473,20.5874 -0.02701,0.034 -2.458626,-1.4536 -5.403244,-3.304 z m 20.729783,-50.6189 c 6.637417,-3.09075 12.458813,-14.99005 9.842329,-20.11859 -0.641032,-1.25657 -3.360477,-4.02189 -3.955228,-4.02189 -0.182556,0 -13.032929,20.2133 -14.215684,22.36098 -0.41491,0.7534 -0.357151,0.8685 0.711601,1.4213 2.774081,1.4345 5.073357,1.5428 7.616982,0.3582 z m 431.937145,51.4171 c -3.19936,-0.8333 -5.58216,-2.3385 -8.77816,-5.545 -2.57937,-2.5879 -7.79374,-9.5165 -7.40514,-9.8396 0.69648,-0.5795 9.97211,-7.338 10.07061,-7.338 0.0729,0 0.96891,1.2743 1.99138,2.8316 5.80898,8.8481 13.79376,10.2804 13.71592,2.4602 -0.0729,-7.2903 -4.77963,-11.5245 -21.37528,-19.2284 -18.25456,-8.4741 -23.80394,-12.7631 -27.85322,-21.5274 -5.31446,-11.5025 -1.34736,-21.67863 10.0663,-25.82154 7.6966,-2.79378 17.27907,1.91393 22.36753,11.23139 0.35108,0.6428 1.13959,1.98679 1.13959,1.98679 0,0 -2.14924,1.65622 -5.11425,3.82286 -1.26222,0.92236 -5.23809,3.70741 -5.23809,3.70741 0,0 -0.96176,-1.83599 -1.36735,-2.44678 -6.59869,-9.93894 -15.40709,-8.26829 -10.53193,1.99741 2.50477,5.27445 5.29424,7.2917 18.68835,13.51546 23.95764,11.132 31.8979,19.3293 31.98008,33.0149 0.0607,10.111 -12.48405,19.7504 -22.35634,17.1787 z M -67.130333,539.00421 c -15.511247,-7.32812 -28.325862,-13.33543 -28.476844,-13.34975 -0.150983,-0.0149 -1.275593,2.06371 -2.498968,4.61759 l -2.224395,4.64334 -4.81943,-2.29063 c -2.65063,-1.2598 -4.79096,-2.43057 -4.75616,-2.60165 0.0877,-0.43123 12.920277,-27.67121 13.138722,-27.88965 0.13614,-0.13613 9.319487,3.99139 9.738027,4.37701 0.05127,0.0472 -0.880257,2.14316 -2.069093,4.65873 -1.188969,2.51543 -2.033742,4.6934 -1.877497,4.8398 0.156378,0.14653 13.055593,6.25072 28.665068,13.56507 15.609475,7.31435 28.42139,13.32828 28.470908,13.36417 0.249748,0.18174 -4.384427,9.45941 -4.708923,9.42729 -0.208461,-0.0203 -13.07003,-6.03322 -28.581415,-13.36132 z m 680.836703,-0.56575 c -3.11261,-6.10177 -5.52225,-11.21791 -5.35482,-11.36902 0.51123,-0.46145 65.3573,-33.57004 65.74981,-33.57004 0.20172,0 1.41025,2.05209 2.68556,4.56023 l 2.31885,4.56024 -28.22359,14.44951 c -15.523,7.94729 -28.4585,14.61994 -28.74562,14.82812 -0.43797,0.31735 0,1.41025 2.68408,6.78327 l 3.20626,6.40482 -4.22602,2.23073 c -2.32425,1.22702 -4.27299,2.22751 -4.3306,2.22359 -0.058,0 -2.6513,-4.9997 -5.76391,-11.10145 z M -47.071936,490.13785 c -16.652589,-11.25243 -30.420861,-20.60242 -30.59613,-20.77768 -1.165763,-1.16577 8.551215,-14.507 12.978144,-16.73342 9.858786,-4.95854 29.314737,6.15373 31.215037,17.28566 l 0.264456,1.54869 16.24039,6.90269 c 8.9321134,3.79655 16.52171109,7.02816 16.86550349,7.18144 0.71389494,0.3183 -4.69232839,8.89663 -5.54141789,8.79314 -0.2412489,-0.0297 -6.8464256,-2.8823 -14.6780816,-6.33965 -9.33743,-4.12199 -14.376249,-6.17165 -14.636792,-5.95361 -0.342713,0.67841 -1.018423,2.22858 -1.018423,2.22858 0.05667,0.0635 4.365673,3.53857 12.231194,8.83928 7.058664,4.75708 12.907713,8.76831 12.997709,8.91404 0.221685,0.35876 -5.237024,8.59534 -5.687004,8.58116 -0.196317,0 -13.98186,-9.21788 -30.634585,-20.47032 z m 3.292874,-12.81584 c 4.026871,-8.31859 -12.397288,-19.49277 -18.475712,-12.56985 -1.452211,1.65393 -2.308856,0.83034 8.419934,8.09464 10.212022,6.91454 9.111834,6.42491 10.055778,4.47521 z m 634.519102,18.72723 c -10.38918,-3.58999 -12.82041,-15.84614 -4.75304,-23.96115 2.92385,-2.94125 37.98144,-28.14951 41.47914,-29.82568 15.44972,-7.40422 28.22656,10.92254 16.02357,22.98385 -2.47631,2.44757 -37.30925,27.56596 -40.68186,29.33619 -4.15047,2.17826 -8.4843,2.70514 -12.06781,1.46679 z m 7.32015,-10.78952 c 2.17299,-1.26587 36.6357,-26.12062 37.97254,-27.38582 4.08017,-3.86186 0.92115,-8.73944 -4.02632,-6.217 -1.19396,0.60865 -35.74168,25.28503 -37.98712,27.13297 -4.91159,4.04213 -1.41133,9.64644 4.0409,6.46985 z M 14.839483,458.6852 C 11.877043,457.85567 8.9318759,456.11877 6.1202844,453.5429 -5.789785,442.63182 -26.626033,422.66936 -27.873964,420.97414 -37.980475,407.2454 -22.418628,391.3955 -8.2397748,400.9766 c 5.0778119,3.43118 36.8147428,34.03028 38.4920108,37.11198 5.863754,10.77359 -3.899503,23.82056 -15.412753,20.59662 z m 5.644501,-11.09106 c 1.181954,-1.26277 1.164954,-3.57824 -0.645756,-5.92367 -1.148086,-1.48702 -6.628924,-6.63041 -16.2830265,-15.66587 -10.0638732,-9.4192 -15.1049855,-14.21595 -17.6388995,-16.13258 -2.501531,-1.89221 -4.591943,-0.91723 -5.315553,-0.30535 -0.906163,0.76626 -1.188429,2.77166 -0.342711,4.19783 1.325785,2.2356 7.626701,8.25708 17.7446816,17.75751 9.7855212,9.18834 14.4903974,13.31991 16.7868404,15.25851 2.888499,2.43853 5.239588,1.29963 5.694424,0.81362 z m 531.947536,3.18466 c -8.49952,-2.97377 -11.94608,-11.67557 -7.96481,-20.11008 1.52236,-3.22526 33.43902,-35.66273 37.88227,-38.5005 14.60077,-9.32488 29.34349,6.28446 19.24304,20.37426 -2.33571,3.25832 -33.51296,34.13969 -36.25777,35.9137 -4.26568,2.75708 -9.14867,3.636 -12.90273,2.32262 z m 7.09795,-10.98097 c 3.48216,-2.41842 33.10736,-32.7849 34.47472,-35.17782 0.46522,-0.81414 0.51717,-2.60947 -0.58344,-3.75566 -0.81601,-0.8499 -2.25164,-1.19222 -3.74028,-0.79499 -2.32546,0.62052 -35.51514,33.81885 -36.20515,36.20354 -1.12474,3.88748 2.49641,5.99584 6.05415,3.52493 z M 55.853532,406.59169 46.393194,394.29856 28.777627,380.66859 c -14.4228,-11.1596 -17.52853,-13.71119 -17.135626,-14.07806 2.19552,-2.04994 7.593376,-5.85687 7.931367,-5.59377 0.221279,0.1723 4.558886,3.7098 9.638992,7.8612 5.080106,4.15142 9.452656,7.54791 9.716849,7.54791 0.636446,0 0.80618,0.41611 -4.926027,-12.07238 -2.73212,-5.95268 -4.917652,-10.95804 -4.856531,-11.12318 0.136274,-0.36849 7.458718,-6.07775 7.795088,-6.07775 0.132228,0 4.132116,9.1167 8.887725,20.2593 l 8.646476,20.2593 9.641286,12.44923 c 5.302734,6.8471 9.508385,12.57701 9.345794,12.7334 -0.712681,0.68556 -7.758527,6.054 -7.943638,6.05264 -0.113332,-8.1e-4 -4.462689,-5.53345 -9.66585,-12.29474 z m 450.398988,4.4643 c 0.0458,0.0283 -0.0675,0.27957 9.58542,-13.18242 5.0936,-7.10238 9.28183,-13.22182 9.28183,-13.22182 l -7.09306,-4.88123 c 0.0324,0.0204 -4.822,6.2831 -9.68325,13.05707 -4.86113,6.77385 -9.23394,12.93133 -9.23394,12.93133 -0.0135,0 -8.52774,-6.16383 -8.52774,-6.16383 l 43.38632,-60.48133 8.66981,6.27218 -17.75399,25.07508 c 0,0 6.89244,5.29465 6.98662,5.18333 0.0607,-0.0716 4.09014,-5.67325 8.95397,-12.44707 4.86368,-6.77397 9.00578,-12.76187 9.00578,-12.76187 l 8.74336,6.26719 -43.58036,60.6848 z m -49.73407,-30.49992 c -9.03803,-2.27567 -13.64981,-10.53464 -10.68993,-19.14388 2.3604,-6.8653 22.11602,-44.82395 24.6324,-47.32873 11.26983,-11.21789 28.17473,-0.27335 23.1266,14.97263 -0.7935,2.39656 -5.2439,11.65061 -5.60293,11.65061 -0.0999,0 -2.10338,-0.96338 -4.45231,-2.14088 l -4.27095,-2.141 2.66993,-5.39557 c 1.87439,-3.78778 2.92911,-6.73618 2.53512,-8.3549 -0.36483,-1.4993 -1.93605,-2.79391 -3.67512,-2.67315 -2.29509,0.15948 -2.8626,0.14626 -14.26871,22.96241 -6.24505,12.49228 -10.02988,20.34309 -10.48322,22.33445 -0.60191,2.64443 -0.0675,4.03417 2.03063,4.91052 2.8769,1.20205 4.40507,-0.19942 7.93367,-7.27671 l 2.53526,-5.08468 4.43704,2.21008 4.43705,2.21023 -2.67289,5.2771 c -5.39313,10.64715 -11.18511,14.78318 -18.22164,13.01147 z M 125.11006,343.49023 c -6.97029,-16.71953 -13.41531,-32.18881 -14.32227,-34.37636 l -1.64908,-3.97709 4.83319,-2.02727 c 2.65818,-1.11489 4.86895,-1.98732 4.91279,-1.93875 0.0445,0.0487 2.68922,6.35354 5.87848,14.011 3.18924,7.65746 5.89722,14.03165 6.01784,14.16496 0.17472,0.19281 7.72654,-2.67342 8.19636,-3.11073 0.0675,-0.0633 -2.5431,-6.49818 -5.80183,-14.30028 -3.25874,-7.80211 -5.86065,-14.24996 -5.78213,-14.32862 0.46375,-0.46373 9.36186,-3.93944 9.56303,-3.73543 0.73414,0.74412 28.78651,68.61158 28.36,68.61158 -0.0729,0 -2.22263,0.86704 -4.77584,1.92674 l -4.64215,1.92689 -6.17987,-14.79923 c -3.39893,-8.13957 -6.30875,-14.87873 -6.46608,-14.97601 -0.26351,-0.16285 -8.1467,2.99146 -8.1467,3.25967 0,0.0648 2.807,6.82849 6.23764,15.02943 3.43062,8.20096 6.20188,14.94309 6.15816,14.98234 -0.085,0.077 -9.61835,4.07977 -9.68083,4.06506 -0.0203,0 -5.74042,-13.68839 -12.71071,-30.4079 z m 276.89687,14.8783 c -10.45976,-2.63781 -14.25091,-10.01449 -11.16799,-21.73013 0.51124,-1.94307 1.01101,-3.61427 1.11057,-3.71384 0.15248,-0.1526 8.4101,1.45464 9.7259,1.89301 0.33232,0.11069 0.31694,0.53891 -0.0661,1.85632 -2.56185,8.79718 0.1514,14.81948 5.16808,11.47115 4.75857,-3.17602 5.04245,-10.14159 0.9809,-24.06746 -4.90524,-16.81881 -5.16564,-22.90087 -1.30823,-30.55053 9.07984,-18.00589 32.54418,-6.39158 26.1565,12.94672 l -0.66127,2.00163 -5.03975,-1.10923 -5.0399,-1.10923 0.51514,-1.60643 c 2.90497,-9.05935 -3.69832,-14.45708 -7.0758,-5.78403 -1.7485,4.49023 -1.36383,8.00654 2.19525,20.06367 4.34112,14.70696 4.89783,20.73208 2.51219,27.19019 -3.66756,9.92787 -10.03351,14.25847 -18.00496,12.24819 z M 194.1947,352.75521 c -0.49491,-1.47906 -18.76339,-71.41307 -18.67662,-71.49698 0.20172,-0.19497 9.98965,-2.72107 10.09611,-2.60556 0.058,0.0633 4.15102,15.53796 9.09403,34.38714 4.94303,18.84919 9.20251,35.01213 9.46535,35.91776 l 0.47804,1.64651 -4.93371,1.29866 c -5.64868,1.48688 -5.32743,1.43738 -5.5232,0.85247 z m 46.34971,-9.32503 c -3.66502,-1.19936 -7.0074,-4.99645 -8.33022,-9.46345 -1.34292,-4.53486 -6.59128,-49.70316 -6.14521,-52.88621 2.33975,-16.69442 23.11838,-18.25483 27.83904,-2.09068 0.92965,3.18305 2.30103,13.965 1.8145,14.26574 -0.18499,0.11465 -2.13791,0.41072 -4.33949,0.65844 -2.20174,0.24787 -4.41776,0.53054 -4.92455,0.62823 -0.92141,0.17756 -0.92141,0.17756 -1.53883,-5.12059 -1.11139,-9.53996 -1.79924,-11.18862 -4.6679,-11.18862 -2.27958,0 -3.45763,1.49444 -3.53102,3.55477 -0.12955,3.63126 0.79553,10.97234 2.60961,25.80719 3.26629,26.70959 3.26022,26.68584 6.96799,26.68584 3.10721,0 3.51846,-2.57535 2.4875,-11.22519 -0.55536,-4.66008 -1.06079,-8.37513 -1.06079,-8.37513 0,0 -0.73292,-0.0391 -1.97545,0.0904 -2.08839,0.21833 -2.08839,0.21833 -2.27027,-0.9349 -0.40061,-2.5397 -0.94949,-7.48894 -0.84248,-7.59594 0.13735,-0.13735 14.67903,-1.95454 14.76294,-1.84484 0.0607,0.0796 4.44312,35.9612 4.44003,36.35478 -9.6e-4,0.1215 -0.8452,0.32827 -1.87602,0.45862 -1.03083,0.13086 -2.38495,0.32746 -3.00927,0.43797 -1.05335,0.1866 -1.19153,0.0891 -1.9181,-1.35115 -0.43069,-0.85368 -0.84275,-1.61831 -0.91574,-1.69913 -0.0729,-0.0809 -0.89672,0.64899 -1.83028,1.62181 -3.05501,3.18292 -7.83799,4.49088 -11.74599,3.21205 z m 73.8405,-2.63268 -3.32256,-0.11742 0.1997,-2.39617 c 0.29197,-3.50375 1.36032,-30.09257 1.21447,-30.22466 -0.0688,-0.0621 -2.09203,-0.18 -4.49722,-0.26258 l -4.37324,-0.15003 -0.0135,1.62586 c -0.0229,3.18237 -1.32875,30.75211 -1.46043,30.84831 -0.22142,0.16177 -10.26533,-0.31897 -10.3962,-0.4976 -0.0661,-0.0904 0.60204,-16.85472 1.48594,-37.25285 l 1.60724,-37.08771 5.1249,0.19187 c 2.81874,0.10529 5.2118,0.27862 5.31785,0.38481 0.10661,0.10661 -0.0958,7.02655 -0.44783,15.37875 -0.35242,8.3522 -0.5702,15.24963 -0.48384,15.32747 0.0863,0.0783 2.09513,0.21805 4.4639,0.31141 l 4.30698,0.16974 0.43621,-10.74524 c 0.23977,-5.90991 0.53606,-12.886 0.65817,-15.50248 l 0.22223,-4.7571 5.20896,0.25042 c 2.86503,0.13763 5.25591,0.29037 5.31311,0.33934 0.11071,0.0945 -2.60892,64.55976 -2.9855,70.77351 l -0.22168,3.6592 -2.01836,-0.0742 c -1.11018,-0.0404 -3.51349,-0.12677 -5.3408,-0.19214 z"
         id="path185"
         sodipodi:nodetypes="scsssssssssssscsssscsscsssssssssssssssssssscssssccssssscssssscssssssssssssssssssssssscssscsssscsscssssssssssssssssssscccccsssssscssssssscsssssscssccscssssscssssccsscscsscsssssssssssssssssssssssssssssssssssssssssssssssscssssscsccscccccssccccssssscssssssscccsssscscsssscssscssssscssssscsssscccssssssssssscssscsssssssssssscsssscsssssccsssccsssccsssscsscsssccccc"
         inkscape:label="out text"
         transform="matrix(0.14794498,0,0,0.14794498,-163.79413,224.9313)" /><path
         id="path208"
         d="m 684.63521,584.6138 c 0.18324,0.0424 -13.61088,2.625 -13.61088,2.625 l 0.80798,4.71791 c 1.4909,8.70187 2.70963,18.06424 3.63481,27.87325 0.9252,9.80892 1.55695,20.06466 1.87597,30.55192 l 0.36211,11.90104 -0.3628,11.6663 c -0.19429,6.24456 -0.51961,12.47133 -0.97338,18.67566 -0.45375,6.20431 -1.03625,12.38693 -1.74661,18.54335 -0.71037,6.1564 -1.54848,12.28644 -2.51237,18.38714 -0.9638,6.1007 -2.05354,12.17152 -3.26797,18.2086 -1.21433,6.03709 -2.55338,12.0404 -4.01534,18.00606 -1.46184,5.96551 -3.04675,11.89351 -4.75321,17.77983 -1.70642,5.88632 -3.53431,11.73107 -5.48218,17.53027 -1.94798,5.79905 -4.01528,11.55279 -6.20169,17.25706 -2.18641,5.70427 -4.49172,11.35905 -6.91364,16.96049 -2.42195,5.60157 -4.96104,11.1496 -7.61545,16.64053 -2.65442,5.49093 -5.42451,10.92498 -8.30839,16.29749 -2.88399,5.37237 -5.88135,10.68306 -8.99178,15.92922 -3.11042,5.24629 -6.33375,10.42792 -9.66771,15.54006 -3.33395,5.11202 -6.77896,10.15573 -10.3334,15.12601 -3.55446,4.97008 -7.21835,9.86671 -10.99026,14.68707 -3.77195,4.82055 -7.65178,9.56465 -11.63827,14.22743 l -2.6533,3.10207 0.3138,0.30798 c 0.17241,0.16934 2.56177,2.19688 5.3093,4.50529 l 4.99551,4.19787 0.44925,-0.35501 c 0.81153,-0.64101 4.72199,-5.36947 9.2974,-11.12397 4.57543,-5.75462 9.81583,-12.53537 13.28689,-17.28063 4.25243,-5.81319 8.35585,-11.72394 12.30943,-17.72424 3.95355,-6.00021 7.75693,-12.0905 11.40821,-18.26353 3.65111,-6.17303 7.14997,-12.42875 10.49539,-18.7602 3.34542,-6.33143 6.53751,-12.73843 9.57376,-19.21388 3.03615,-6.47543 5.91701,-13.01866 8.64058,-19.62368 2.72343,-6.60504 5.28982,-13.27201 7.69711,-19.99222 2.40745,-6.72033 4.65574,-13.49442 6.74351,-20.31565 2.08774,-6.82122 4.01486,-13.68906 5.77964,-20.59678 1.76464,-6.90771 3.36736,-13.85514 4.80562,-20.83492 1.43823,-6.97992 2.71237,-13.99191 3.82065,-21.0296 1.10841,-7.03768 2.05058,-14.10082 2.8255,-21.18188 0.77491,-7.08105 1.38205,-14.18056 1.82014,-21.29057 0.4381,-7.11013 0.70737,-14.2308 0.80525,-21.3556 0.0974,-7.12471 0.0251,-14.25355 -0.22124,-21.37862 -0.24592,-7.12479 -0.66474,-14.24599 -1.25789,-21.35692 -0.593,-7.11103 -1.36101,-14.21144 -2.30478,-21.29397 -0.68901,-5.1702 -1.49734,-9.73858 -2.13395,-13.01428 -0.6366,-3.27574 -1.10132,-5.25875 -1.10132,-5.25875 z m -797.93548,0.3751 c -0.44204,0.43565 -2.85015,16.42019 -3.97794,26.40506 -0.88108,7.80041 -1.50161,14.58176 -1.93655,21.54024 -0.43506,6.9586 -0.68441,14.09459 -0.82299,22.60565 l -0.22048,13.54314 0.41319,9.67335 c 0.27095,6.33886 0.66662,12.64758 1.18577,18.92395 0.51921,6.27638 1.16188,12.52018 1.92757,18.72995 0.76567,6.20976 1.6544,12.38579 2.66495,18.52465 1.01054,6.13887 2.14282,12.24086 3.39652,18.30458 1.25371,6.06368 2.62887,12.08905 4.1243,18.07314 1.49525,5.98411 3.11133,11.92717 4.84647,17.82737 1.735285,5.90048 3.589641,11.75824 5.563182,17.57053 1.973423,5.8123 4.06592,11.57955 6.275909,17.2994 2.209994,5.71984 4.537347,11.39228 6.982325,17.01553 2.444982,5.62325 5.007323,11.19739 7.685579,16.71962 2.678127,5.52222 5.472032,10.99277 8.381847,16.40966 2.90982,5.41704 5.93516,10.78007 9.074828,16.08751 3.139803,5.30733 6.394463,10.55924 9.762403,15.75278 3.368071,5.19354 6.849685,10.32907 10.444316,15.40446 3.59463,5.07549 7.30201,10.09045 11.121617,15.04343 3.819608,4.95299 7.751174,9.84416 11.794179,14.67034 l 4.056834,4.84272 0.9809167,-0.81386 c 6.1455103,-5.09774 9.66361084,-8.09615 9.66361084,-8.23799 0,-0.0954 -1.49185664,-1.93923 -3.31498844,-4.09733 -5.6974023,-6.74406 -7.5369981,-9.04837 -13.7060891,-17.16784 -4.499937,-5.92269 -8.836939,-11.94078 -13.0085,-18.04689 -4.171432,-6.1062 -8.178212,-12.30089 -12.018104,-18.57766 -3.83989,-6.27676 -7.513287,-12.63509 -11.018216,-19.06963 -3.50506,-6.43466 -6.841256,-12.94555 -10.008062,-19.52513 -3.166803,-6.57958 -6.163557,-13.22798 -8.988944,-19.93974 -2.825386,-6.71163 -5.479275,-13.48613 -7.95995,-20.31695 -2.480675,-6.83097 -4.788404,-13.71856 -6.921078,-20.65585 -2.132805,-6.93732 -4.090816,-13.92488 -5.872326,-20.95571 -1.781637,-7.03092 -3.387165,-14.10523 -4.814352,-21.21682 -1.427029,-7.11158 -2.675737,-14.26003 -3.745177,-21.43951 -1.06942,-7.17935 -1.9592,-14.38974 -2.6676,-21.62414 -0.70853,-7.23441 -1.23565,-14.49311 -1.57984,-21.76972 -0.3443,-7.27661 -0.50594,-14.57101 -0.48261,-21.87697 0.0238,-7.30583 0.23092,-14.62319 0.62487,-21.94552 0.39397,-7.32229 0.97459,-14.64916 1.7425,-21.975 0.76796,-7.32596 1.72385,-14.65105 2.86914,-21.96764 l 1.175479,-7.51203 -0.376324,-0.12413 c -1.048225,-0.34562 -13.161295,-2.26565 -13.318185,-2.111 z"
         style="fill:#b3b3b3;fill-opacity:1;stroke-width:1.30782"
         inkscape:label="surround line"
         transform="matrix(0.14794498,0,0,0.14794498,-163.79413,224.9313)" /><g
         id="g185"
         inkscape:label="warrior 2"
         transform="matrix(0.19930131,0,0,0.19930131,-27.26956,41.921617)"
         style="fill:#ff0000"><path
           d="m -413.91483,1433.2179 c -0.22005,0 -1.27931,0.5503 -2.74402,1.3999 -1.46471,0.8496 -3.33529,1.9984 -5.17849,3.1951 l -3.08819,2.0051 v 21.0674 21.0675 l -2.79414,3.8003 -2.79363,3.8003 0.79892,11.9656 0.79892,11.9657 -1.51102,1.726 c -3.88575,4.4398 -9.99248,10.9292 -15.23886,16.3086 -2.6232,2.6897 -5.03104,5.1016 -6.83886,6.8414 -1.80783,1.7398 -3.01543,2.8071 -3.23753,2.8071 -0.0996,0 -0.18464,-0.042 -0.25425,-0.1488 -0.0696,-0.1067 -0.12373,-0.2778 -0.16123,-0.5354 -0.075,-0.5152 -0.0837,-1.3761 -0.0176,-2.7606 0.13224,-2.7689 0.56352,-7.6311 1.36167,-16.0021 1.36645,-14.3316 2.49224,-25.5336 3.3383,-33.2533 0.84606,-7.7196 1.41258,-11.9567 1.66088,-12.3584 0.1161,-0.1879 1.35389,-0.9556 3.15691,-1.9854 1.80303,-1.0298 4.17101,-2.3216 6.54741,-3.5574 l 3.67471,-1.911 1.95078,-4.2912 c 1.16265,-2.5571 2.12786,-4.7791 2.7802,-6.3836 0.65233,-1.6045 0.99173,-2.5914 0.90433,-2.6789 -0.1314,-0.1314 -4.50205,1.0803 -10.13374,2.7513 -5.6317,1.6709 -12.5242,3.8012 -17.6997,5.5071 l -6.05854,1.9973 0.17311,3.343 c 0.143,2.7624 0.76556,9.3973 1.64176,17.4986 l 0.15762,1.4552 -3.57808,3.1404 c -1.61462,1.4173 -2.81976,2.4799 -3.79977,3.2096 -0.49,0.3649 -0.9237,0.6466 -1.32395,0.848 -0.40025,0.2015 -0.76701,0.3223 -1.12344,0.3659 -0.35644,0.044 -0.70289,0.01 -1.06144,-0.099 -0.35854,-0.1087 -0.72925,-0.292 -1.13585,-0.5473 -0.81318,-0.5105 -1.76845,-1.3086 -3.04942,-2.3719 -1.26363,-1.0489 -2.218,-1.861 -2.91869,-2.6582 -0.35034,-0.3986 -0.6371,-0.7937 -0.86764,-1.2124 -0.23055,-0.4186 -0.40498,-0.861 -0.52969,-1.3549 -0.24941,-0.9879 -0.30103,-2.1815 -0.21084,-3.8024 0.0902,-1.6209 0.32215,-3.6693 0.64027,-6.3655 0.3605,-3.056 0.73338,-6.8239 0.82838,-8.3736 l 0.17311,-2.8179 -0.76584,-0.3949 c -1.09195,-0.5629 -9.28393,-3.1818 -17.24649,-5.6161 -3.98129,-1.2172 -7.90506,-2.3881 -10.85567,-3.2329 -2.95062,-0.8448 -4.92799,-1.3636 -5.01572,-1.2759 -0.11115,0.1111 0.12329,0.901 0.68316,2.3197 0.55988,1.4188 1.4453,3.4666 2.63705,6.0937 l 2.24896,4.9579 5.05706,2.6065 c 2.89819,1.4938 4.83382,2.5285 6.088,3.2706 1.25417,0.7422 1.82709,1.192 2.00039,1.5157 0.22088,0.4127 0.7277,3.926 1.36943,9.1167 0.64172,5.1908 1.41849,12.0586 2.17764,19.1808 0.75916,7.1222 1.50113,14.4987 2.07429,20.7057 0.57317,6.207 0.97717,11.2445 1.06092,13.6896 l 0.076,2.2143 -0.45682,0.2941 -0.45682,0.294 -1.22215,-1.1854 c -2.86805,-2.7821 -9.17974,-9.4237 -14.77429,-15.4456 -2.79728,-3.011 -5.41522,-5.8671 -7.33392,-8.0083 -1.91871,-2.1412 -3.13831,-3.5674 -3.13831,-3.7192 10e-4,-0.2588 0.35188,-5.6381 0.77928,-11.9537 l 0.7767,-11.4831 -0.83406,-1.2169 c -0.4589,-0.6693 -1.76225,-2.5146 -2.89595,-4.1006 l -2.06137,-2.884 v -20.9295 -20.93 l -3.7977,-2.4324 c -2.30885,-1.4787 -4.04409,-2.5396 -5.23431,-3.1988 -1.19022,-0.6591 -1.83579,-0.9166 -1.96474,-0.788 -0.14952,0.1491 -0.24136,2.467 -0.28422,6.0373 -0.0428,3.5704 -0.0368,8.3933 0.0103,13.5532 0.0471,5.1599 0.13495,10.6569 0.25528,15.5748 0.12033,4.9178 0.27325,9.2568 0.4501,12.101 0.0759,1.2205 0.13494,2.141 0.21859,2.8887 0.0837,0.7478 0.19229,1.3227 0.36794,1.8511 0.17565,0.5284 0.4181,1.0106 0.76998,1.573 0.35188,0.5624 0.81288,1.2048 1.42523,2.0547 0.8389,1.1642 1.81001,2.6647 2.15801,3.3341 l 0.63252,1.217 -0.27905,5.2653 c -0.1535,2.8959 -0.40632,8.7091 -0.56172,12.9186 l -0.28216,7.6538 1.00769,0.9731 c 0.5542,0.5354 8.25746,7.6286 17.11885,15.7623 l 16.11168,14.7883 6.37791,3.1052 c 3.50779,1.7078 7.8067,3.7564 9.5529,4.5527 h -10e-4 c 1.07215,0.4889 1.80468,0.8735 2.50269,1.078 0.34901,0.1022 0.68918,0.1594 1.05937,0.1622 0.37018,0 0.77034,-0.049 1.23816,-0.1643 0.93566,-0.231 2.14285,-0.7174 3.92793,-1.5348 1.78507,-0.8174 4.14759,-1.9658 7.39386,-3.5207 l 7.48068,-3.5832 17.03824,-15.6394 17.03824,-15.6394 0.0822,-1.4738 c 0.0449,-0.8106 -0.10586,-6.9234 -0.33486,-13.5842 l -0.416,-12.1108 2.74971,-3.8169 2.74918,-3.8178 0.1602,-2.7249 c 0.1779,-3.0286 0.31425,-7.5989 0.40824,-12.7507 0.094,-5.1517 0.14553,-10.8851 0.15297,-16.2398 0.007,-5.3547 -0.0288,-10.3307 -0.11059,-13.9681 -0.0818,-3.6375 -0.20878,-5.9366 -0.38241,-5.9366 z"
           style="fill:#000000;fill-opacity:1"
           id="path179" /><path
           d="m -502.94919,1308.7469 c -0.48992,-0.058 -1.03263,0.067 -1.79524,0.4599 -0.7626,0.3929 -1.74495,1.0544 -3.11453,2.0702 -1.36959,1.0158 -3.12653,2.3862 -5.4374,4.1972 -2.77502,2.1747 -4.86814,3.5605 -6.24768,4.81 -0.68977,0.6247 -1.20127,1.215 -1.53014,1.8531 -0.16443,0.3191 -0.28283,0.6501 -0.35553,1.0031 -0.0727,0.3529 -0.0996,0.728 -0.0796,1.1353 0.04,0.8146 0.26668,1.7583 0.68368,2.9125 0.41699,1.1541 1.02428,2.5186 1.82624,4.1754 1.60392,3.3137 3.98596,7.7963 7.17786,14.0994 5.12179,10.1143 7.85262,15.4706 9.48831,18.3524 0.81784,1.4409 1.36191,2.2633 1.7942,2.7523 0.43229,0.4889 0.75272,0.6446 1.12345,0.7524 0.39417,0.1146 0.74149,0.1802 1.09605,0.1752 0.35457,-0.01 0.71637,-0.081 1.1405,-0.2486 0.84828,-0.3355 1.94474,-1.0397 3.72639,-2.2856 1.78295,-1.2468 2.89497,-2.0799 3.60185,-2.7528 0.35344,-0.3365 0.60538,-0.6334 0.78961,-0.9214 0.18424,-0.2881 0.30084,-0.5673 0.38241,-0.8703 l 0.26562,-0.9859 -5.69733,-24.1433 c -2.92145,-12.3802 -4.40097,-18.6372 -5.33042,-21.9087 -0.46473,-1.6358 -0.79189,-2.5254 -1.09296,-3.0608 -0.30107,-0.5355 -0.57605,-0.7167 -0.93638,-0.9364 -0.55155,-0.3363 -0.98905,-0.5768 -1.47898,-0.6346 z"
           style="fill:#323232;fill-opacity:1"
           id="path163" /><path
           d="m -473.21198,1273.7253 -12.37082,12.4979 -12.37134,12.4975 9.63714,40.5918 c 5.30039,22.3255 9.72022,40.9219 9.82162,41.3251 l 0.18448,0.7338 5.18057,-0.072 5.18056,-0.072 9.76529,-41.0823 9.76582,-41.0822 -5.17282,-5.3522 c -2.84489,-2.9436 -8.42294,-8.6443 -12.39614,-12.6684 z"
           style="fill:#000000;fill-opacity:1"
           id="path162" /><path
           d="m -473.69733,1386.2951 -4.74057,3.2672 c -8.85491,6.1031 -16.39802,11.3269 -22.73196,15.745 -6.33394,4.4181 -11.45866,8.0302 -15.47648,10.9101 -2.00892,1.4399 -3.74136,2.6967 -5.20972,3.7796 -1.46837,1.083 -2.67296,1.992 -3.62621,2.7363 -0.95325,0.7442 -1.65518,1.3238 -2.11902,1.7477 -0.23192,0.2119 -0.40427,0.3848 -0.51864,0.5201 -0.11436,0.1353 -0.1707,0.2329 -0.1707,0.2939 0,0.043 0.0353,0.1029 0.10204,0.1764 0.0667,0.074 0.16476,0.161 0.29,0.2605 0.25049,0.1989 0.60975,0.4452 1.04494,0.7212 0.43518,0.276 0.94619,0.5816 1.50027,0.8995 0.55408,0.3179 1.15123,0.6481 1.75844,0.9728 1.21442,0.6494 2.46938,1.277 3.50153,1.7424 0.51608,0.2327 0.97653,0.4249 1.34837,0.5589 0.37184,0.1339 0.65529,0.2094 0.81708,0.2094 0.10967,0 0.3421,-0.09 0.69163,-0.2677 0.34954,-0.1774 0.81603,-0.4417 1.3944,-0.7891 1.15673,-0.6948 2.76004,-1.7222 4.76628,-3.0535 2.00624,-1.3313 4.41509,-2.9661 7.18297,-4.8756 2.76789,-1.9095 5.89453,-4.0938 9.33615,-6.5232 3.93384,-2.7768 7.21038,-5.081 9.9219,-6.9754 2.71153,-1.8944 4.85818,-3.3787 6.532,-4.5162 1.67382,-1.1374 2.87487,-1.9279 3.69564,-2.4339 0.41038,-0.2531 0.72573,-0.4349 0.95747,-0.5536 0.23174,-0.1187 0.37993,-0.1741 0.45611,-0.1741 0.078,0 0.23352,0.059 0.47797,0.1852 0.24445,0.1263 0.57785,0.3196 1.01233,0.5881 0.86895,0.537 2.14153,1.3746 3.91199,2.5767 1.77045,1.202 4.03888,2.7687 6.89949,4.7639 2.86061,1.9953 6.3133,4.4192 10.45281,7.3357 2.58299,1.8198 5.63037,3.9444 8.45884,5.9013 2.82848,1.957 5.43819,3.7464 7.14654,4.896 1.79027,1.2047 3.07909,2.093 4.06044,2.7197 0.49068,0.3134 0.90436,0.5616 1.26551,0.7511 0.36115,0.1896 0.66971,0.3204 0.9498,0.3997 0.14005,0.04 0.27274,0.067 0.40163,0.081 0.1289,0.015 0.25369,0.017 0.37747,0.01 0.24757,-0.017 0.49116,-0.079 0.75455,-0.1792 0.26339,-0.1 0.54689,-0.2379 0.87461,-0.407 0.32773,-0.169 0.69951,-0.3691 1.14007,-0.5934 0.70183,-0.3572 1.34765,-0.6964 1.93835,-1.0181 0.5907,-0.3217 1.12628,-0.626 1.60768,-0.9137 0.48141,-0.2877 0.90856,-0.5588 1.28239,-0.814 0.37383,-0.2553 0.69437,-0.4944 0.96246,-0.7185 0.2681,-0.2241 0.48378,-0.4331 0.64791,-0.6276 0.16413,-0.1945 0.27684,-0.3745 0.33872,-0.5409 0.031,-0.083 0.0491,-0.1626 0.0549,-0.239 0.006,-0.076 -0.001,-0.1495 -0.0203,-0.2194 -0.0193,-0.07 -0.0507,-0.1367 -0.0948,-0.2002 -0.044,-0.064 -0.10055,-0.1238 -0.16917,-0.1811 -0.72105,-0.602 -2.02585,-1.5934 -3.76661,-2.872 -1.74075,-1.2786 -3.91759,-2.8446 -6.38278,-4.5964 -2.46518,-1.7518 -5.21863,-3.6891 -8.11321,-5.7107 -2.89459,-2.0215 -5.93026,-4.1273 -8.95906,-6.2151 -3.0288,-2.0878 -8.87539,-6.0821 -8.91878,-6.1085 0,0 -8.01663,-5.3265 -7.99353,-5.3919 0,0 -11.20562,-6.9778 -11.30214,-7.0404 z"
           style="fill:#000000"
           id="path225"
           sodipodi:nodetypes="ccssssssscssssssscssssssssssssssssssccccsssssssccscsssssccc" /><path
           d="m -458.27801,1364.6464 c -0.28632,0.013 -0.55055,0.074 -0.79944,0.1824 -0.24888,0.1084 -0.4824,0.2644 -0.70538,0.4687 -0.44596,0.4084 -0.85149,1.009 -1.26297,1.804 -0.82296,1.59 -1.66907,3.9575 -2.90732,7.1189 -1.5743,4.0195 -2.42758,6.292 -2.79259,7.7432 -0.18251,0.7257 -0.24289,1.246 -0.21032,1.6764 0.0326,0.4304 0.15779,0.771 0.34726,1.1374 0.17395,0.3364 11.58031,9.0548 23.0787,17.7405 11.49838,8.6858 23.08888,17.3387 23.63163,17.5437 0.63347,0.2393 1.28114,0.3019 1.89601,0.2191 0.61486,-0.083 1.19707,-0.3106 1.70015,-0.6522 0.50308,-0.3416 0.92712,-0.7971 1.22525,-1.3343 0.29813,-0.5371 0.47025,-1.1558 0.47025,-1.8252 0,-0.3091 -0.6347,-2.2398 -1.59938,-4.9749 -0.96468,-2.7351 -2.25919,-6.2747 -3.57756,-9.8014 -1.31837,-3.5267 -2.66066,-7.0406 -3.72174,-9.7245 -1.06108,-2.6839 -1.84118,-4.5378 -2.03398,-4.7444 -0.3172,-0.34 -2.24358,-1.8344 -4.28088,-3.3213 -2.03729,-1.4869 -8.55724,-6.2471 -14.48904,-10.5781 -4.00257,-2.9224 -6.92196,-5.1177 -9.12709,-6.5696 -1.10256,-0.726 -2.02693,-1.266 -2.81843,-1.618 -0.7915,-0.3521 -1.4505,-0.5166 -2.02313,-0.4904 z"
           style="fill:#000000;fill-opacity:1"
           id="path170" /><path
           d="m -488.68848,1364.718 c 0.28632,0.013 0.55055,0.074 0.79944,0.1824 0.24888,0.1084 0.4824,0.2644 0.70538,0.4687 0.44596,0.4084 0.85149,1.009 1.26297,1.804 0.82296,1.59 1.66907,3.9575 2.90732,7.1189 1.5743,4.0195 2.42758,6.292 2.79259,7.7432 0.18251,0.7257 0.24289,1.246 0.21032,1.6764 -0.0326,0.4304 -0.15779,0.771 -0.34726,1.1374 -0.17395,0.3364 -11.58031,9.0548 -23.0787,17.7405 -11.49838,8.6858 -23.08888,17.3387 -23.63163,17.5437 -0.63347,0.2393 -1.28114,0.3019 -1.89601,0.2191 -0.61486,-0.083 -1.19707,-0.3106 -1.70015,-0.6522 -0.50308,-0.3416 -0.92712,-0.7971 -1.22525,-1.3343 -0.29813,-0.5371 -0.47025,-1.1558 -0.47025,-1.8252 0,-0.3091 0.6347,-2.2398 1.59938,-4.9749 0.96468,-2.7351 2.25919,-6.2747 3.57756,-9.8014 1.31837,-3.5267 2.66066,-7.0406 3.72174,-9.7245 1.06108,-2.6839 1.84118,-4.5378 2.03398,-4.7444 0.3172,-0.34 2.24358,-1.8344 4.28088,-3.3213 2.03729,-1.4869 8.55724,-6.2471 14.48904,-10.5781 4.00257,-2.9224 6.92196,-5.1177 9.12709,-6.5696 1.10256,-0.726 2.02693,-1.266 2.81843,-1.618 0.7915,-0.3521 1.4505,-0.5166 2.02313,-0.4904 z"
           style="fill:#000000;fill-opacity:1"
           id="path170-0" /><path
           d="m -442.38079,1308.8653 c -0.40565,3e-4 -0.75332,-0.018 -1.06454,0 -0.31121,0.02 -0.58574,0.079 -0.84387,0.2351 -0.25813,0.1564 -0.4998,0.4101 -0.74621,0.8196 -0.2464,0.4096 -0.49756,0.9749 -0.7736,1.7544 -0.55206,1.5591 -1.20469,3.9751 -2.12338,7.7148 -0.91869,3.7398 -2.10352,8.8033 -3.71967,15.658 -2.88535,12.2378 -4.35339,18.4909 -4.99711,21.8539 -0.32186,1.6816 -0.43757,2.6406 -0.42116,3.2639 0.0164,0.6233 0.16446,0.9108 0.37103,1.2496 0.2712,0.4447 2.01943,1.8364 3.84731,3.162 1.82789,1.3257 3.73551,2.5853 4.32635,2.7658 0.40038,0.1222 0.81724,0.1627 1.23145,0.1297 0.41422,-0.033 0.8258,-0.1395 1.21595,-0.3111 0.39015,-0.1717 0.7591,-0.4087 1.08727,-0.7023 0.32817,-0.2936 0.6156,-0.644 0.84388,-1.0428 1.71455,-2.9957 6.73713,-12.911 11.34556,-22.224 2.30422,-4.6565 4.50529,-9.1626 6.13709,-12.5775 1.63181,-3.415 2.69455,-5.7389 2.72335,-6.0317 0.0528,-0.5369 0.0763,-0.957 -0.0475,-1.386 -0.12385,-0.4289 -0.39512,-0.8667 -0.93069,-1.4386 -0.53558,-0.572 -1.33583,-1.2783 -2.5182,-2.2443 -1.18236,-0.9661 -2.74685,-2.1922 -4.81107,-3.8034 -4.68035,-3.6533 -6.85093,-5.3646 -8.03259,-6.163 -0.59083,-0.3991 -0.93404,-0.5702 -1.22059,-0.6413 -0.28656,-0.071 -0.51647,-0.042 -0.87902,-0.042 z"
           style="fill:#323232;fill-opacity:1"
           id="path164" /></g><path
         id="path148"
         style="display:inline;fill:#800000;fill-opacity:1"
         d="m -88.916551,315.02014 c -0.374483,2.2e-4 -0.753441,0.0302 -1.000456,0.0899 -0.259242,0.0627 -0.499402,0.15368 -0.719853,0.27182 -0.22045,0.11813 -0.421391,0.26355 -0.601513,0.43563 -0.180122,0.17208 -0.339751,0.37077 -0.478007,0.59532 -0.138256,0.22456 -0.254998,0.47529 -0.34985,0.75085 -0.11166,0.32439 -0.189896,0.65244 -0.244946,1.05575 -0.05505,0.40331 -0.087,0.88157 -0.104903,1.50637 l -0.03204,1.12241 h 1.293978 1.293978 l 0.03359,-1.0697 c 0.01408,-0.45228 0.03796,-0.82583 0.07648,-1.13223 0.03852,-0.30641 0.09126,-0.54572 0.162781,-0.72812 0.03576,-0.0912 0.07634,-0.16824 0.121956,-0.23254 0.04562,-0.0643 0.09641,-0.11542 0.152962,-0.15555 0.05655,-0.0401 0.119031,-0.0692 0.187586,-0.0879 0.06856,-0.0187 0.143162,-0.0274 0.224792,-0.0274 0.120467,0 0.2277,0.0299 0.322461,0.0904 0.09476,0.0605 0.176987,0.15163 0.247014,0.2744 0.07003,0.12277 0.127884,0.27732 0.174149,0.46405 0.04626,0.18672 0.08091,0.40596 0.104387,0.65836 0.0288,0.30945 0.03173,0.64203 0.0088,0.99632 -0.02297,0.35429 -0.07193,0.72988 -0.145211,1.125 -0.07328,0.39513 -0.170879,0.80982 -0.293006,1.24178 -0.122126,0.43196 -0.268697,0.88137 -0.438216,1.34617 -0.16952,0.4648 -0.362287,0.94503 -0.577742,1.43867 -0.215455,0.49365 -0.453203,1.0008 -0.713135,1.51929 -0.259931,0.51849 -0.54196,1.04816 -0.84491,1.5875 -0.30295,0.53934 -0.627005,1.08816 -0.971517,1.64435 l -0.457853,0.73949 v 1.28105 1.28158 h 3.565157 3.565674 v -1.26762 -1.26763 h -2.086177 c -1.253328,0 -2.086695,-0.0195 -2.086695,-0.0491 0,-0.0271 0.214957,-0.42514 0.478007,-0.8847 0.279564,-0.48842 0.693955,-1.2784 1.084689,-2.05517 0.390732,-0.77678 0.758322,-1.54039 0.943611,-1.97611 0.2282,-0.53662 0.430755,-1.05055 0.608749,-1.54357 0.177993,-0.49302 0.331248,-0.9652 0.460437,-1.41955 0.129187,-0.45435 0.234475,-0.89094 0.316259,-1.31155 0.08178,-0.4206 0.13992,-0.82519 0.1757,-1.21698 0.0297,-0.3252 0.03853,-0.65774 0.02791,-0.98651 -0.01061,-0.32877 -0.04067,-0.65401 -0.08837,-0.96531 -0.0477,-0.31131 -0.113259,-0.60882 -0.19482,-0.8816 -0.08156,-0.27279 -0.179256,-0.52058 -0.291455,-0.73381 -0.08837,-0.16794 -0.200033,-0.32814 -0.331763,-0.47697 -0.13173,-0.14884 -0.283252,-0.28669 -0.450102,-0.41031 -0.166849,-0.12362 -0.349388,-0.23275 -0.543119,-0.32505 -0.193731,-0.0923 -0.398958,-0.16784 -0.611332,-0.22272 -0.22988,-0.0596 -0.599618,-0.0891 -0.974101,-0.0889 z m -65.951009,0.16433 c -0.11735,-0.004 -0.23347,-0.004 -0.34675,0.002 -0.22656,0.0104 -0.44128,0.0393 -0.62994,0.0889 -0.19431,0.0511 -0.37671,0.11946 -0.54725,0.20516 -0.17054,0.0857 -0.32932,0.18895 -0.47594,0.30902 -0.14662,0.12007 -0.28106,0.25719 -0.4036,0.41135 -0.12255,0.15416 -0.23291,0.32517 -0.33124,0.51314 -0.0983,0.18796 -0.18493,0.39295 -0.2589,0.61444 -0.074,0.22148 -0.13554,0.45942 -0.185,0.71416 -0.0495,0.25474 -0.0868,0.52621 -0.11162,0.81391 -0.0248,0.28771 -0.0372,0.5917 -0.0372,0.91209 v 0.65784 h 1.24127 1.24178 l 5.2e-4,-0.59428 c 4.5e-4,-0.29343 0.0102,-0.56836 0.0284,-0.81907 0.0182,-0.25071 0.0449,-0.47721 0.0791,-0.6749 0.0342,-0.19769 0.0762,-0.36635 0.12454,-0.50074 0.0484,-0.13438 0.10302,-0.23481 0.16381,-0.29559 0.0574,-0.0574 0.13281,-0.0949 0.21652,-0.11421 0.0837,-0.0193 0.17602,-0.0209 0.26717,-0.005 0.0912,0.0155 0.18119,0.0479 0.26097,0.0951 0.0798,0.0472 0.14936,0.10982 0.19895,0.18552 0.0571,0.0872 0.10252,0.17502 0.13849,0.28474 0.036,0.10972 0.0627,0.24121 0.0822,0.41444 0.0389,0.34646 0.0492,0.86065 0.0496,1.70687 3.6e-4,0.79332 -1e-4,1.19722 -0.016,1.43713 -0.008,0.11996 -0.0201,0.1989 -0.0377,0.2651 -0.0177,0.0662 -0.0407,0.11977 -0.0718,0.18861 -0.0581,0.12863 -0.1298,0.24023 -0.21704,0.33693 -0.0873,0.0967 -0.19022,0.17864 -0.31213,0.2465 -0.1219,0.0678 -0.26268,0.12173 -0.42478,0.16382 -0.1621,0.0421 -0.34563,0.0721 -0.55346,0.0915 l -0.34726,0.0331 v 1.04903 c 0,0.57683 0.006,1.04829 0.0134,1.04851 0.13924,0.004 0.37579,0.0363 0.60669,0.077 0.2309,0.0407 0.45578,0.0906 0.57154,0.13126 0.0986,0.0346 0.19341,0.0802 0.28215,0.13539 0.0887,0.0552 0.17134,0.12011 0.24701,0.19275 0.0757,0.0727 0.14428,0.15283 0.20361,0.23978 0.0593,0.087 0.10959,0.1804 0.14934,0.27854 0.0572,0.14125 0.0865,0.22928 0.10181,0.49558 0.0153,0.26629 0.0165,0.71098 0.0165,1.56631 0,0.78212 -0.003,1.23496 -0.0165,1.53169 -0.0138,0.29672 -0.0386,0.43729 -0.0822,0.59531 -0.0411,0.14894 -0.0937,0.27564 -0.1571,0.3793 -0.0634,0.10367 -0.13722,0.18429 -0.22014,0.24082 -0.0829,0.0565 -0.17515,0.0886 -0.27492,0.0961 -0.0998,0.008 -0.20701,-0.01 -0.32091,-0.0527 -0.0997,-0.0379 -0.18575,-0.10382 -0.25941,-0.20206 -0.0737,-0.0982 -0.13504,-0.22891 -0.18552,-0.39687 -0.0505,-0.16797 -0.0903,-0.37305 -0.12041,-0.62012 -0.0301,-0.24708 -0.0504,-0.53621 -0.063,-0.87178 l -0.032,-0.85835 h -1.26452 -1.26453 l 0.0336,0.59428 c 0.0366,0.65169 0.0885,1.16275 0.16899,1.60042 0.0402,0.21883 0.0878,0.41928 0.14366,0.60978 0.0558,0.19051 0.1198,0.37139 0.1943,0.55036 0.10007,0.24037 0.22017,0.45956 0.35863,0.6568 0.13846,0.19725 0.29566,0.37225 0.46923,0.52348 0.17357,0.15125 0.36357,0.27899 0.56895,0.38138 0.20538,0.10238 0.42601,0.1793 0.65991,0.22996 0.21025,0.0455 0.50162,0.0714 0.78755,0.076 0.28593,0.005 0.56653,-0.012 0.75499,-0.0512 0.22513,-0.0468 0.44422,-0.12907 0.65319,-0.24236 0.20896,-0.11329 0.40752,-0.25765 0.59118,-0.42891 0.18367,-0.17126 0.35254,-0.36942 0.50178,-0.59015 0.14924,-0.22073 0.2793,-0.46384 0.38499,-0.72554 0.0862,-0.21336 0.18046,-0.52392 0.26252,-0.85007 0.0821,-0.32616 0.15172,-0.66835 0.18861,-0.94413 0.035,-0.26121 0.0438,-0.81939 0.0326,-1.38855 -0.0112,-0.56915 -0.0423,-1.14917 -0.0884,-1.45417 -0.0406,-0.26847 -0.0937,-0.52401 -0.15864,-0.76533 -0.065,-0.24132 -0.14186,-0.46834 -0.22996,-0.67955 -0.0881,-0.2112 -0.18764,-0.40632 -0.29766,-0.58446 -0.11002,-0.17813 -0.23052,-0.339 -0.36122,-0.4811 l -0.31212,-0.33952 0.2651,-0.34416 c 0.16873,-0.21939 0.31274,-0.45799 0.43408,-0.72244 0.12134,-0.26445 0.22015,-0.55495 0.29766,-0.87953 0.0775,-0.32459 0.13381,-0.68283 0.17104,-1.08262 0.0372,-0.3998 0.0553,-0.84111 0.0558,-1.33119 3.9e-4,-0.3123 -0.004,-0.57062 -0.0165,-0.79478 -0.0127,-0.22417 -0.034,-0.41408 -0.0672,-0.58963 -0.0332,-0.17555 -0.0783,-0.33688 -0.13953,-0.50333 -0.0612,-0.16645 -0.13844,-0.33798 -0.23512,-0.53485 -0.0628,-0.12788 -0.14115,-0.25794 -0.22996,-0.38447 -0.0888,-0.12653 -0.18815,-0.25 -0.29301,-0.36432 -0.10486,-0.11432 -0.21513,-0.21984 -0.32608,-0.31109 -0.11094,-0.0913 -0.22212,-0.168 -0.32918,-0.22531 -0.16421,-0.0879 -0.36083,-0.16183 -0.57516,-0.22014 -0.21434,-0.0583 -0.44649,-0.10107 -0.68161,-0.12661 -0.11755,-0.0127 -0.23612,-0.0214 -0.35346,-0.0253 z m 8.21345,0.007 c -0.36923,7e-5 -0.7383,0.0274 -0.95033,0.0827 -0.14817,0.0386 -0.28898,0.0853 -0.42323,0.14005 -0.13425,0.0547 -0.26177,0.11746 -0.38241,0.18862 -0.12063,0.0712 -0.23477,0.15079 -0.3421,0.23874 -0.10734,0.088 -0.20796,0.1843 -0.3023,0.28939 -0.0943,0.10509 -0.18241,0.219 -0.26407,0.34158 -0.0816,0.12257 -0.15705,0.25389 -0.22634,0.39429 -0.13857,0.2808 -0.25271,0.5977 -0.34365,0.95188 -0.0412,0.16032 -0.0641,0.32257 -0.077,0.72244 -0.0129,0.39988 -0.016,1.03751 -0.016,2.1487 0,1.11577 0.003,1.75512 0.0165,2.16576 0.0134,0.41064 0.0371,0.59253 0.0801,0.7922 0.0638,0.29658 0.14665,0.56479 0.24856,0.80616 0.10192,0.24136 0.22317,0.45553 0.36484,0.64388 0.14167,0.18835 0.30371,0.35084 0.48679,0.48835 0.18308,0.13751 0.38728,0.25013 0.6134,0.33899 0.12478,0.049 0.22731,0.0793 0.36122,0.0971 0.13391,0.018 0.29921,0.0238 0.54932,0.0253 0.29775,0.002 0.45131,0.001 0.58136,-0.0233 0.13005,-0.0247 0.23633,-0.0739 0.43873,-0.17053 l 0.41289,-0.1974 -0.0212,2.25722 c -0.0118,1.24709 -0.0209,1.89723 -0.0646,2.2686 -0.0219,0.18569 -0.0522,0.30197 -0.0961,0.38809 -0.0439,0.0861 -0.1014,0.14211 -0.17673,0.20825 -0.0769,0.0675 -0.13273,0.10703 -0.20051,0.12971 -0.0678,0.0227 -0.1474,0.0284 -0.27233,0.0284 -0.12545,0 -0.204,-0.005 -0.26717,-0.0264 -0.0632,-0.0213 -0.11115,-0.059 -0.17518,-0.12299 -0.0553,-0.0553 -0.0992,-0.11088 -0.13539,-0.18294 -0.0362,-0.0721 -0.0644,-0.16045 -0.0879,-0.28163 -0.0468,-0.24235 -0.0745,-0.61536 -0.10749,-1.24799 l -0.0594,-1.14877 h -1.26555 -1.26504 l 0.0289,1.12242 c 0.0125,0.48527 0.0245,0.78366 0.0475,1.01596 0.0231,0.2323 0.0574,0.39876 0.11524,0.62115 0.0853,0.32813 0.19876,0.62541 0.33951,0.8909 0.0704,0.13275 0.14769,0.25749 0.23151,0.37414 0.0838,0.11665 0.17431,0.22529 0.2713,0.32556 0.097,0.10028 0.2002,0.19235 0.31006,0.27595 0.10987,0.0836 0.22636,0.15868 0.34882,0.22531 0.12246,0.0666 0.25124,0.12477 0.38602,0.17415 0.13479,0.0494 0.27537,0.0901 0.4222,0.12195 v -5.1e-4 c 0.22499,0.0488 0.5517,0.0739 0.87901,0.0744 0.3273,5.5e-4 0.65525,-0.0233 0.88212,-0.0713 0.2381,-0.0504 0.45961,-0.12309 0.66456,-0.21859 0.20495,-0.0955 0.39331,-0.21376 0.56534,-0.3545 0.17204,-0.14074 0.32781,-0.30424 0.46715,-0.49041 0.13934,-0.18616 0.26209,-0.39506 0.36897,-0.62684 0.0972,-0.21089 0.16857,-0.33985 0.22118,-0.51883 0.0526,-0.17898 0.0867,-0.40765 0.10904,-0.81752 0.0446,-0.81976 0.0428,-2.36424 0.0517,-5.68441 0.007,-2.63271 0.008,-4.13692 -0.001,-5.03225 -0.009,-0.89534 -0.0297,-1.18208 -0.0667,-1.37924 -0.0338,-0.18052 -0.0757,-0.35259 -0.12558,-0.51625 -0.0499,-0.16366 -0.10786,-0.31846 -0.17363,-0.46509 -0.0658,-0.14663 -0.13965,-0.28499 -0.22118,-0.41444 -0.0815,-0.12944 -0.17052,-0.25017 -0.26768,-0.36226 -0.0971,-0.11209 -0.20207,-0.21547 -0.31471,-0.31005 -0.11263,-0.0946 -0.23325,-0.18045 -0.36122,-0.25735 -0.12798,-0.0769 -0.26351,-0.14506 -0.40669,-0.20412 -0.14317,-0.0591 -0.29393,-0.10881 -0.45217,-0.14987 -0.21262,-0.0552 -0.58213,-0.0828 -0.95136,-0.0827 z m 46.14033,0.005 v 4.70101 4.701 h 1.109501 c 0.51893,0 0.79603,-10e-4 0.94361,-0.0139 0.0738,-0.006 0.11506,-0.0157 0.13797,-0.0289 0.0229,-0.0132 0.0274,-0.0307 0.0274,-0.0532 0,-0.0996 0.03,-0.2159 0.0806,-0.33641 0.0506,-0.12052 0.12203,-0.2453 0.20464,-0.3607 0.0826,-0.11541 0.17633,-0.22163 0.27233,-0.30593 0.096,-0.0843 0.19395,-0.14643 0.28474,-0.17363 0.0958,-0.0287 0.19111,-0.0358 0.28267,-0.0227 0.0916,0.0131 0.17934,0.0464 0.26096,0.0977 0.0816,0.0513 0.15718,0.12072 0.22325,0.20671 0.0661,0.086 0.12307,0.18826 0.16795,0.30541 0.0393,0.10246 0.0626,0.22983 0.0785,0.5488 0.016,0.31896 0.0242,0.82957 0.0336,1.69912 0.012,1.1164 0.002,2.0662 -0.0279,2.7926 -0.015,0.3632 -0.0353,0.67064 -0.06,0.91518 -0.0246,0.24456 -0.0536,0.42616 -0.0873,0.53796 -0.0263,0.0873 -0.0651,0.17635 -0.11059,0.25683 -0.0455,0.0805 -0.0979,0.15221 -0.15089,0.20515 -0.073,0.073 -0.12644,0.11674 -0.18655,0.14211 -0.0601,0.0254 -0.12691,0.0326 -0.22686,0.0326 -0.0756,0 -0.14486,-0.0103 -0.20878,-0.0315 -0.0639,-0.0212 -0.12231,-0.0537 -0.17518,-0.0982 -0.0529,-0.0444 -0.10067,-0.10097 -0.14314,-0.17053 -0.0425,-0.0696 -0.0794,-0.15193 -0.11214,-0.24856 -0.0655,-0.19325 -0.11225,-0.44239 -0.14263,-0.75551 -0.0304,-0.31312 -0.0444,-0.69047 -0.045,-1.13895 l -0.001,-0.67335 h -1.30225 -1.302761 l 0.0346,0.79789 c 0.019,0.43886 0.0715,1.04484 0.11628,1.34669 0.034,0.22902 0.0767,0.44655 0.12867,0.65164 0.052,0.2051 0.11306,0.39776 0.18293,0.57877 0.0699,0.18101 0.14856,0.35018 0.236171,0.50695 0.0876,0.15678 0.18415,0.30117 0.28938,0.43356 0.10522,0.13239 0.21938,0.25286 0.3421,0.3607 0.12273,0.10784 0.25419,0.20315 0.39429,0.28629 0.14009,0.0831 0.28863,0.15411 0.44597,0.21239 0.15734,0.0583 0.32317,0.10419 0.49764,0.13746 v -5.2e-4 c 0.23187,0.0442 0.57344,0.06 0.90899,0.0501 0.33555,-0.01 0.6654,-0.0456 0.87437,-0.10283 0.1569,-0.043 0.3059,-0.0953 0.447,-0.15762 0.1411,-0.0623 0.2744,-0.13449 0.39997,-0.21652 0.12558,-0.082 0.24315,-0.17388 0.35347,-0.27595 0.11032,-0.10207 0.21318,-0.21446 0.30851,-0.33693 0.0953,-0.12246 0.183444,-0.25522 0.264066,-0.39843 0.08062,-0.14321 0.153958,-0.29664 0.220142,-0.46095 0.132367,-0.32861 0.23588,-0.70009 0.312125,-1.11518 0.0284,-0.1546 0.05337,-0.5449 0.07338,-1.05833 0.02001,-0.51343 0.0353,-1.14995 0.04393,-1.79679 0.0086,-0.64684 0.01038,-1.304 0.0047,-1.85881 -0.0058,-0.5548 -0.0192,-1.00701 -0.04237,-1.24436 -0.02593,-0.26557 -0.06458,-0.51662 -0.115755,-0.75241 -0.05117,-0.23578 -0.115113,-0.45644 -0.190686,-0.66146 -0.07557,-0.20503 -0.162873,-0.39412 -0.262,-0.56741 -0.09913,-0.17329 -0.209924,-0.33071 -0.331764,-0.47129 -0.12184,-0.14058 -0.25472,-0.26466 -0.39842,-0.37155 -0.14371,-0.1069 -0.2983,-0.19648 -0.46302,-0.26872 -0.16473,-0.0722 -0.33962,-0.1272 -0.52452,-0.16381 -0.1849,-0.0366 -0.37971,-0.0548 -0.58394,-0.0548 -0.17096,0 -0.2883,0.006 -0.39791,0.0284 -0.10961,0.0223 -0.2117,0.0604 -0.35089,0.12351 -0.18476,0.0838 -0.42713,0.21494 -0.53898,0.29094 -0.11185,0.076 -0.22161,0.13797 -0.24391,0.13797 -0.0224,0 -0.0408,-0.844 -0.0408,-1.87533 v -1.87483 h 2.06034 2.059824 v -1.29449 -1.29398 h -3.169314 z m -46.1455,2.1792 c 0.0452,-2e-4 0.0906,0.005 0.13591,0.0129 l -5.2e-4,5.1e-4 c 0.0906,0.0172 0.17986,0.0509 0.26252,0.0982 0.0827,0.0473 0.15863,0.10832 0.22221,0.17932 0.0636,0.071 0.11493,0.15194 0.14831,0.24029 0.0371,0.0981 0.0564,1.0782 0.0563,2.8789 -5e-5,1.50208 0.001,2.24017 -0.0393,2.63343 -0.0202,0.19663 -0.0509,0.30747 -0.0971,0.38395 -0.0463,0.0765 -0.10846,0.11882 -0.19172,0.17984 -0.086,0.063 -0.25474,0.11317 -0.42271,0.12557 -0.0844,0.006 -0.16061,0.004 -0.23048,-0.008 -0.0699,-0.0115 -0.1334,-0.0329 -0.19224,-0.0641 -0.0589,-0.0312 -0.11303,-0.0724 -0.16433,-0.12506 -0.0513,-0.0527 -0.0995,-0.11672 -0.14676,-0.19275 l -0.12661,-0.20361 -0.015,-2.66753 c -0.007,-1.17201 -0.008,-1.84552 0.002,-2.25051 0.01,-0.40499 0.0305,-0.54116 0.0677,-0.63872 0.0493,-0.12939 0.14226,-0.25919 0.25115,-0.36277 0.1089,-0.10358 0.23401,-0.18092 0.34675,-0.20567 0.0437,-0.01 0.0887,-0.0143 0.13384,-0.0145 z"
         inkscape:label="3952" /></g></g></svg>
